<svg width="29" height="38" viewBox="0 0 29 38" fill="none" xmlns="http://www.w3.org/2000/svg">
<path d="M22.375 17.5417C22.375 17.7958 22.2828 18.0396 22.1187 18.2193C21.9546 18.399 21.7321 18.5 21.5 18.5H7.5C7.26794 18.5 7.04538 18.399 6.88128 18.2193C6.71719 18.0396 6.625 17.7958 6.625 17.5417V7.46958C6.62491 7.32354 6.65529 7.17942 6.71383 7.0482C6.77236 6.91699 6.85751 6.80217 6.96275 6.7125L13.9627 0.74879C14.1163 0.617925 14.3054 0.546875 14.5 0.546875C14.6946 0.546875 14.8836 0.617925 15.0373 0.74879L22.0373 6.7125C22.1425 6.80217 22.2276 6.91699 22.2862 7.0482C22.3447 7.17942 22.3751 7.32354 22.375 7.46958V17.5417Z" fill="#F7551D"/>
<path d="M0.799006 35.5V28.2273H1.89631V31.3878H5.52202V28.2273H6.62287V35.5H5.52202V32.3288H1.89631V35.5H0.799006ZM10.4332 35.6101C9.92188 35.6101 9.47562 35.4929 9.09446 35.2585C8.7133 35.0241 8.41738 34.6963 8.20668 34.2749C7.99598 33.8535 7.89062 33.361 7.89062 32.7976C7.89062 32.2318 7.99598 31.737 8.20668 31.3132C8.41738 30.8894 8.7133 30.5604 9.09446 30.326C9.47562 30.0916 9.92188 29.9744 10.4332 29.9744C10.9446 29.9744 11.3909 30.0916 11.772 30.326C12.1532 30.5604 12.4491 30.8894 12.6598 31.3132C12.8705 31.737 12.9759 32.2318 12.9759 32.7976C12.9759 33.361 12.8705 33.8535 12.6598 34.2749C12.4491 34.6963 12.1532 35.0241 11.772 35.2585C11.3909 35.4929 10.9446 35.6101 10.4332 35.6101ZM10.4368 34.7188C10.7682 34.7188 11.0429 34.6312 11.2607 34.456C11.4785 34.2808 11.6394 34.0476 11.7436 33.7564C11.8501 33.4652 11.9034 33.1444 11.9034 32.794C11.9034 32.446 11.8501 32.1264 11.7436 31.8352C11.6394 31.5417 11.4785 31.3061 11.2607 31.1286C11.0429 30.951 10.7682 30.8622 10.4368 30.8622C10.103 30.8622 9.82599 30.951 9.60582 31.1286C9.38802 31.3061 9.22585 31.5417 9.11932 31.8352C9.01515 32.1264 8.96307 32.446 8.96307 32.794C8.96307 33.1444 9.01515 33.4652 9.11932 33.7564C9.22585 34.0476 9.38802 34.2808 9.60582 34.456C9.82599 34.6312 10.103 34.7188 10.4368 34.7188ZM14.161 35.5V30.0455H15.1802V30.9332H15.2477C15.3613 30.6326 15.5472 30.3982 15.8052 30.2301C16.0633 30.0597 16.3722 29.9744 16.7321 29.9744C17.0967 29.9744 17.402 30.0597 17.6483 30.2301C17.8968 30.4006 18.0803 30.6349 18.1987 30.9332H18.2555C18.3857 30.642 18.5929 30.41 18.877 30.2372C19.161 30.062 19.4996 29.9744 19.8926 29.9744C20.3874 29.9744 20.791 30.1295 21.1035 30.4396C21.4184 30.7498 21.5758 31.2173 21.5758 31.8423V35.5H20.514V31.9418C20.514 31.5724 20.4134 31.3049 20.2122 31.1392C20.0109 30.9735 19.7707 30.8906 19.4913 30.8906C19.1457 30.8906 18.877 30.9972 18.6852 31.2102C18.4934 31.4209 18.3975 31.692 18.3975 32.0234V35.5H17.3393V31.8743C17.3393 31.5784 17.247 31.3404 17.0623 31.1605C16.8777 30.9806 16.6374 30.8906 16.3414 30.8906C16.1402 30.8906 15.9544 30.9439 15.7839 31.0504C15.6158 31.1546 15.4797 31.3002 15.3755 31.4872C15.2737 31.6742 15.2228 31.8909 15.2228 32.1371V35.5H14.161ZM25.3498 35.6101C24.8124 35.6101 24.3496 35.4953 23.9613 35.2656C23.5754 35.0336 23.2771 34.7081 23.0664 34.2891C22.8581 33.8677 22.7539 33.3741 22.7539 32.8082C22.7539 32.2495 22.8581 31.7571 23.0664 31.331C23.2771 30.9048 23.5707 30.5722 23.9471 30.3331C24.3259 30.094 24.7686 29.9744 25.2752 29.9744C25.583 29.9744 25.8813 30.0253 26.1701 30.1271C26.4589 30.2289 26.7182 30.3887 26.9478 30.6065C27.1774 30.8243 27.3585 31.1072 27.4911 31.4553C27.6237 31.8009 27.69 32.2211 27.69 32.7159V33.0923H23.354V32.2969H26.6495C26.6495 32.0175 26.5927 31.7701 26.479 31.5547C26.3654 31.3369 26.2056 31.1652 25.9996 31.0398C25.796 30.9143 25.5569 30.8516 25.2823 30.8516C24.984 30.8516 24.7236 30.925 24.5011 31.0717C24.2809 31.2161 24.1104 31.4055 23.9897 31.6399C23.8713 31.8719 23.8121 32.1241 23.8121 32.3963V33.0178C23.8121 33.3823 23.8761 33.6925 24.0039 33.9482C24.1341 34.2038 24.3152 34.3991 24.5472 34.5341C24.7792 34.6667 25.0503 34.733 25.3604 34.733C25.5617 34.733 25.7451 34.7045 25.9109 34.6477C26.0766 34.5885 26.2198 34.5009 26.3406 34.3849C26.4613 34.2689 26.5536 34.1257 26.6175 33.9553L27.6225 34.1364C27.542 34.4323 27.3976 34.6915 27.1893 34.9141C26.9833 35.1342 26.7241 35.3059 26.4116 35.429C26.1014 35.5497 25.7475 35.6101 25.3498 35.6101Z" fill="#FA561D"/>
</svg>
