<svg width="59" height="39" viewBox="0 0 59 39" fill="none" xmlns="http://www.w3.org/2000/svg">
<rect x="21.8" width="15.4" height="17.5" rx="1" fill="#9B9BA5"/>
<rect x="24.8" y="8.5" width="2" height="7" fill="#1F2229"/>
<rect x="28.5" y="2" width="2" height="13.5" fill="#1F2229"/>
<rect x="32.2" y="10.5" width="2" height="5" fill="#1F2229"/>
<path d="M1.89631 29.2273V36.5H0.799006V29.2273H1.89631ZM4.47088 33.2614V36.5H3.40909V31.0455H4.42827V31.9332H4.49574C4.62121 31.6444 4.81771 31.4124 5.08523 31.2372C5.35511 31.062 5.69484 30.9744 6.1044 30.9744C6.47609 30.9744 6.80161 31.0526 7.08097 31.2088C7.36032 31.3627 7.57694 31.5923 7.73082 31.8977C7.88471 32.2031 7.96165 32.5807 7.96165 33.0305V36.5H6.89986V33.1584C6.89986 32.763 6.79688 32.4541 6.59091 32.2315C6.38494 32.0066 6.10204 31.8942 5.74219 31.8942C5.49598 31.8942 5.27699 31.9474 5.08523 32.054C4.89583 32.1605 4.7455 32.3168 4.63423 32.5227C4.52533 32.7263 4.47088 32.9725 4.47088 33.2614ZM13.8565 31.0455L11.8786 36.5H10.7422L8.76065 31.0455H9.90057L11.282 35.2429H11.3388L12.7166 31.0455H13.8565ZM17.0197 36.6101C16.4823 36.6101 16.0195 36.4953 15.6312 36.2656C15.2453 36.0336 14.947 35.7081 14.7363 35.2891C14.528 34.8677 14.4238 34.3741 14.4238 33.8082C14.4238 33.2495 14.528 32.7571 14.7363 32.331C14.947 31.9048 15.2406 31.5722 15.617 31.3331C15.9958 31.094 16.4385 30.9744 16.9451 30.9744C17.2529 30.9744 17.5512 31.0253 17.84 31.1271C18.1288 31.2289 18.3881 31.3887 18.6177 31.6065C18.8474 31.8243 19.0285 32.1072 19.161 32.4553C19.2936 32.8009 19.3599 33.2211 19.3599 33.7159V34.0923H15.024V33.2969H18.3194C18.3194 33.0175 18.2626 32.7701 18.149 32.5547C18.0353 32.3369 17.8755 32.1652 17.6696 32.0398C17.466 31.9143 17.2269 31.8516 16.9522 31.8516C16.6539 31.8516 16.3935 31.925 16.171 32.0717C15.9508 32.2161 15.7804 32.4055 15.6596 32.6399C15.5413 32.8719 15.4821 33.1241 15.4821 33.3963V34.0178C15.4821 34.3823 15.546 34.6925 15.6738 34.9482C15.804 35.2038 15.9851 35.3991 16.2172 35.5341C16.4492 35.6667 16.7202 35.733 17.0304 35.733C17.2316 35.733 17.4151 35.7045 17.5808 35.6477C17.7465 35.5885 17.8897 35.5009 18.0105 35.3849C18.1312 35.2689 18.2235 35.1257 18.2875 34.9553L19.2924 35.1364C19.2119 35.4323 19.0675 35.6915 18.8592 35.9141C18.6532 36.1342 18.394 36.3059 18.0815 36.429C17.7714 36.5497 17.4174 36.6101 17.0197 36.6101ZM24.6254 32.3771L23.663 32.5476C23.6228 32.4245 23.5588 32.3073 23.4712 32.196C23.386 32.0848 23.27 31.9936 23.1232 31.9226C22.9764 31.8516 22.793 31.8161 22.5728 31.8161C22.2721 31.8161 22.0212 31.8835 21.82 32.0185C21.6187 32.151 21.5181 32.3227 21.5181 32.5334C21.5181 32.7157 21.5856 32.8625 21.7205 32.9737C21.8555 33.085 22.0733 33.1761 22.3739 33.2472L23.2404 33.446C23.7423 33.562 24.1164 33.7408 24.3626 33.9822C24.6088 34.2237 24.7319 34.5374 24.7319 34.9233C24.7319 35.25 24.6372 35.5412 24.4478 35.7969C24.2608 36.0502 23.9992 36.2491 23.663 36.3935C23.3292 36.5379 22.9421 36.6101 22.5018 36.6101C21.891 36.6101 21.3926 36.4799 21.0067 36.2195C20.6209 35.9567 20.3841 35.5838 20.2965 35.1009L21.3228 34.9446C21.3867 35.2121 21.5181 35.4145 21.717 35.5518C21.9158 35.6868 22.1751 35.7543 22.4947 35.7543C22.8427 35.7543 23.1209 35.6821 23.3292 35.5376C23.5375 35.3909 23.6417 35.2121 23.6417 35.0014C23.6417 34.831 23.5778 34.6877 23.4499 34.5717C23.3245 34.4557 23.1315 34.3681 22.8711 34.3089L21.9478 34.1065C21.4388 33.9905 21.0624 33.8059 20.8185 33.5526C20.5771 33.2992 20.4563 32.9785 20.4563 32.5902C20.4563 32.2682 20.5463 31.9865 20.7262 31.745C20.9061 31.5036 21.1547 31.3153 21.4719 31.1804C21.7892 31.0431 22.1526 30.9744 22.5621 30.9744C23.1516 30.9744 23.6156 31.1023 23.9542 31.358C24.2927 31.6113 24.5165 31.951 24.6254 32.3771ZM28.4455 31.0455V31.8977H25.4661V31.0455H28.4455ZM26.2651 29.7386H27.3269V34.8984C27.3269 35.1044 27.3577 35.2595 27.4192 35.3636C27.4808 35.4654 27.5601 35.5353 27.6571 35.5732C27.7566 35.6087 27.8643 35.6264 27.9803 35.6264C28.0655 35.6264 28.1401 35.6205 28.204 35.6087C28.2679 35.5968 28.3176 35.5874 28.3532 35.5803L28.5449 36.4574C28.4834 36.4811 28.3958 36.5047 28.2821 36.5284C28.1685 36.5545 28.0265 36.5687 27.856 36.571C27.5766 36.5758 27.3162 36.526 27.0748 36.4219C26.8333 36.3177 26.638 36.1567 26.4888 35.9389C26.3397 35.7211 26.2651 35.4477 26.2651 35.1186V29.7386ZM29.62 36.5V31.0455H30.6392V31.9332H30.7067C30.8203 31.6326 31.0062 31.3982 31.2642 31.2301C31.5223 31.0597 31.8312 30.9744 32.1911 30.9744C32.5556 30.9744 32.861 31.0597 33.1072 31.2301C33.3558 31.4006 33.5393 31.6349 33.6577 31.9332H33.7145C33.8447 31.642 34.0518 31.41 34.3359 31.2372C34.62 31.062 34.9586 30.9744 35.3516 30.9744C35.8464 30.9744 36.25 31.1295 36.5625 31.4396C36.8774 31.7498 37.0348 32.2173 37.0348 32.8423V36.5H35.973V32.9418C35.973 32.5724 35.8724 32.3049 35.6712 32.1392C35.4699 31.9735 35.2296 31.8906 34.9503 31.8906C34.6046 31.8906 34.3359 31.9972 34.1442 32.2102C33.9524 32.4209 33.8565 32.692 33.8565 33.0234V36.5H32.7983V32.8743C32.7983 32.5784 32.706 32.3404 32.5213 32.1605C32.3366 31.9806 32.0964 31.8906 31.8004 31.8906C31.5992 31.8906 31.4134 31.9439 31.2429 32.0504C31.0748 32.1546 30.9387 32.3002 30.8345 32.4872C30.7327 32.6742 30.6818 32.8909 30.6818 33.1371V36.5H29.62ZM40.8088 36.6101C40.2714 36.6101 39.8085 36.4953 39.4203 36.2656C39.0344 36.0336 38.7361 35.7081 38.5254 35.2891C38.3171 34.8677 38.2129 34.3741 38.2129 33.8082C38.2129 33.2495 38.3171 32.7571 38.5254 32.331C38.7361 31.9048 39.0297 31.5722 39.4061 31.3331C39.7849 31.094 40.2276 30.9744 40.7342 30.9744C41.042 30.9744 41.3403 31.0253 41.6291 31.1271C41.9179 31.2289 42.1771 31.3887 42.4068 31.6065C42.6364 31.8243 42.8175 32.1072 42.9501 32.4553C43.0827 32.8009 43.149 33.2211 43.149 33.7159V34.0923H38.813V33.2969H42.1085C42.1085 33.0175 42.0517 32.7701 41.938 32.5547C41.8244 32.3369 41.6646 32.1652 41.4586 32.0398C41.255 31.9143 41.0159 31.8516 40.7413 31.8516C40.443 31.8516 40.1826 31.925 39.96 32.0717C39.7399 32.2161 39.5694 32.4055 39.4487 32.6399C39.3303 32.8719 39.2711 33.1241 39.2711 33.3963V34.0178C39.2711 34.3823 39.335 34.6925 39.4629 34.9482C39.5931 35.2038 39.7742 35.3991 40.0062 35.5341C40.2382 35.6667 40.5093 35.733 40.8194 35.733C41.0207 35.733 41.2041 35.7045 41.3699 35.6477C41.5356 35.5885 41.6788 35.5009 41.7995 35.3849C41.9203 35.2689 42.0126 35.1257 42.0765 34.9553L43.0815 35.1364C43.001 35.4323 42.8566 35.6915 42.6483 35.9141C42.4423 36.1342 42.1831 36.3059 41.8706 36.429C41.5604 36.5497 41.2065 36.6101 40.8088 36.6101ZM45.3888 33.2614V36.5H44.3271V31.0455H45.3462V31.9332H45.4137C45.5392 31.6444 45.7357 31.4124 46.0032 31.2372C46.2731 31.062 46.6128 30.9744 47.0224 30.9744C47.3941 30.9744 47.7196 31.0526 47.9989 31.2088C48.2783 31.3627 48.4949 31.5923 48.6488 31.8977C48.8027 32.2031 48.8796 32.5807 48.8796 33.0305V36.5H47.8178V33.1584C47.8178 32.763 47.7148 32.4541 47.5089 32.2315C47.3029 32.0066 47.02 31.8942 46.6602 31.8942C46.4139 31.8942 46.195 31.9474 46.0032 32.054C45.8138 32.1605 45.6635 32.3168 45.5522 32.5227C45.4433 32.7263 45.3888 32.9725 45.3888 33.2614ZM52.8498 31.0455V31.8977H49.8704V31.0455H52.8498ZM50.6694 29.7386H51.7312V34.8984C51.7312 35.1044 51.762 35.2595 51.8235 35.3636C51.8851 35.4654 51.9644 35.5353 52.0614 35.5732C52.1609 35.6087 52.2686 35.6264 52.3846 35.6264C52.4698 35.6264 52.5444 35.6205 52.6083 35.6087C52.6722 35.5968 52.7219 35.5874 52.7575 35.5803L52.9492 36.4574C52.8877 36.4811 52.8001 36.5047 52.6864 36.5284C52.5728 36.5545 52.4308 36.5687 52.2603 36.571C51.9809 36.5758 51.7205 36.526 51.479 36.4219C51.2376 36.3177 51.0423 36.1567 50.8931 35.9389C50.744 35.7211 50.6694 35.4477 50.6694 35.1186V29.7386ZM58.0238 32.3771L57.0614 32.5476C57.0212 32.4245 56.9573 32.3073 56.8697 32.196C56.7844 32.0848 56.6684 31.9936 56.5217 31.9226C56.3749 31.8516 56.1914 31.8161 55.9712 31.8161C55.6706 31.8161 55.4196 31.8835 55.2184 32.0185C55.0172 32.151 54.9165 32.3227 54.9165 32.5334C54.9165 32.7157 54.984 32.8625 55.119 32.9737C55.2539 33.085 55.4717 33.1761 55.7724 33.2472L56.6388 33.446C57.1407 33.562 57.5148 33.7408 57.761 33.9822C58.0072 34.2237 58.1303 34.5374 58.1303 34.9233C58.1303 35.25 58.0356 35.5412 57.8462 35.7969C57.6592 36.0502 57.3976 36.2491 57.0614 36.3935C56.7276 36.5379 56.3406 36.6101 55.9002 36.6101C55.2894 36.6101 54.7911 36.4799 54.4052 36.2195C54.0193 35.9567 53.7826 35.5838 53.695 35.1009L54.7212 34.9446C54.7852 35.2121 54.9165 35.4145 55.1154 35.5518C55.3143 35.6868 55.5735 35.7543 55.8931 35.7543C56.2411 35.7543 56.5193 35.6821 56.7276 35.5376C56.936 35.3909 57.0401 35.2121 57.0401 35.0014C57.0401 34.831 56.9762 34.6877 56.8484 34.5717C56.7229 34.4557 56.5299 34.3681 56.2695 34.3089L55.3462 34.1065C54.8372 33.9905 54.4608 33.8059 54.217 33.5526C53.9755 33.2992 53.8548 32.9785 53.8548 32.5902C53.8548 32.2682 53.9447 31.9865 54.1246 31.745C54.3046 31.5036 54.5531 31.3153 54.8704 31.1804C55.1876 31.0431 55.551 30.9744 55.9606 30.9744C56.5501 30.9744 57.0141 31.1023 57.3526 31.358C57.6912 31.6113 57.9149 31.951 58.0238 32.3771Z" fill="#989AA5"/>
</svg>
