<svg width="48" height="37" viewBox="0 0 48 37" fill="none" xmlns="http://www.w3.org/2000/svg">
<rect x="13.5" y="0.5" width="21" height="16" rx="1" fill="#999BA7"/>
<circle cx="24.75" cy="8.75" r="4.25" fill="#1B1E27"/>
<path d="M0.799006 34.5V27.2273H3.39134C3.95715 27.2273 4.4259 27.3303 4.79759 27.5362C5.16927 27.7422 5.44744 28.0239 5.6321 28.3814C5.81676 28.7365 5.90909 29.1366 5.90909 29.5817C5.90909 30.0291 5.81558 30.4316 5.62855 30.7891C5.44389 31.1442 5.16454 31.4259 4.79048 31.6342C4.4188 31.8402 3.95123 31.9432 3.38778 31.9432H1.60511V31.0128H3.28835C3.64583 31.0128 3.93584 30.9512 4.15838 30.8281C4.38092 30.7027 4.54427 30.5322 4.64844 30.3168C4.7526 30.1013 4.80469 29.8563 4.80469 29.5817C4.80469 29.3071 4.7526 29.0632 4.64844 28.8501C4.54427 28.6371 4.37973 28.4702 4.15483 28.3494C3.93229 28.2287 3.63873 28.1683 3.27415 28.1683H1.89631V34.5H0.799006ZM8.64879 34.6207C8.30315 34.6207 7.99065 34.5568 7.71129 34.429C7.43194 34.2988 7.21058 34.1106 7.04723 33.8643C6.88625 33.6181 6.80575 33.3163 6.80575 32.9588C6.80575 32.651 6.86494 32.3977 6.98331 32.1989C7.10168 32 7.26148 31.8426 7.46271 31.7266C7.66394 31.6106 7.88885 31.523 8.13743 31.4638C8.38601 31.4046 8.63932 31.3596 8.89737 31.3288C9.22408 31.291 9.48923 31.2602 9.69283 31.2365C9.89643 31.2105 10.0444 31.169 10.1367 31.1122C10.229 31.0554 10.2752 30.9631 10.2752 30.8352V30.8104C10.2752 30.5002 10.1876 30.2599 10.0124 30.0895C9.83961 29.919 9.58156 29.8338 9.23828 29.8338C8.8808 29.8338 8.59908 29.9131 8.39311 30.0717C8.18951 30.228 8.04865 30.402 7.97053 30.5938L6.97266 30.3665C7.09103 30.035 7.26385 29.7675 7.49112 29.5639C7.72076 29.358 7.98473 29.2088 8.28303 29.1165C8.58132 29.0218 8.895 28.9744 9.22408 28.9744C9.44188 28.9744 9.6727 29.0005 9.91655 29.0526C10.1628 29.1023 10.3924 29.1946 10.6055 29.3295C10.8209 29.4645 10.9973 29.6574 11.1346 29.9084C11.2719 30.157 11.3406 30.4801 11.3406 30.8778V34.5H10.3036V33.7543H10.261C10.1924 33.8916 10.0894 34.0265 9.95206 34.1591C9.81475 34.2917 9.63838 34.4018 9.42294 34.4893C9.2075 34.5769 8.94946 34.6207 8.64879 34.6207ZM8.87962 33.7685C9.17318 33.7685 9.42412 33.7105 9.63246 33.5945C9.84316 33.4785 10.003 33.3269 10.1119 33.1399C10.2231 32.9505 10.2788 32.7481 10.2788 32.5327V31.8295C10.2409 31.8674 10.1675 31.9029 10.0586 31.9361C9.95206 31.9669 9.83014 31.9941 9.69283 32.0178C9.55552 32.0391 9.42176 32.0592 9.29155 32.0781C9.16134 32.0947 9.05244 32.1089 8.96484 32.1207C8.75888 32.1468 8.57067 32.1906 8.40021 32.2521C8.23213 32.3137 8.09718 32.4025 7.99538 32.5185C7.89595 32.6321 7.84624 32.7836 7.84624 32.973C7.84624 33.2358 7.9433 33.4347 8.13743 33.5696C8.33156 33.7022 8.57895 33.7685 8.87962 33.7685ZM13.2306 36.5455C13.072 36.5455 12.9276 36.5324 12.7974 36.5064C12.6672 36.4827 12.5701 36.4567 12.5062 36.4283L12.7619 35.5582C12.956 35.6103 13.1288 35.6328 13.2804 35.6257C13.4319 35.6186 13.5656 35.5618 13.6816 35.4553C13.8 35.3487 13.9042 35.1747 13.9941 34.9332L14.1255 34.571L12.1298 29.0455H13.2662L14.6475 33.2784H14.7044L16.0858 29.0455H17.2257L14.9778 35.228C14.8736 35.5121 14.7411 35.7524 14.5801 35.9489C14.4191 36.1477 14.2273 36.2969 14.0048 36.3963C13.7823 36.4957 13.5242 36.5455 13.2306 36.5455ZM18.2235 34.5V29.0455H19.2427V29.9332H19.3102C19.4238 29.6326 19.6097 29.3982 19.8677 29.2301C20.1258 29.0597 20.4347 28.9744 20.7946 28.9744C21.1592 28.9744 21.4645 29.0597 21.7108 29.2301C21.9593 29.4006 22.1428 29.6349 22.2612 29.9332H22.318C22.4482 29.642 22.6554 29.41 22.9395 29.2372C23.2235 29.062 23.5621 28.9744 23.9551 28.9744C24.4499 28.9744 24.8535 29.1295 25.166 29.4396C25.4809 29.7498 25.6383 30.2173 25.6383 30.8423V34.5H24.5765V30.9418C24.5765 30.5724 24.4759 30.3049 24.2747 30.1392C24.0734 29.9735 23.8332 29.8906 23.5538 29.8906C23.2082 29.8906 22.9395 29.9972 22.7477 30.2102C22.5559 30.4209 22.46 30.692 22.46 31.0234V34.5H21.4018V30.8743C21.4018 30.5784 21.3095 30.3404 21.1248 30.1605C20.9402 29.9806 20.6999 29.8906 20.4039 29.8906C20.2027 29.8906 20.0169 29.9439 19.8464 30.0504C19.6783 30.1546 19.5422 30.3002 19.438 30.4872C19.3362 30.6742 19.2853 30.8909 19.2853 31.1371V34.5H18.2235ZM29.4123 34.6101C28.8749 34.6101 28.4121 34.4953 28.0238 34.2656C27.6379 34.0336 27.3396 33.7081 27.1289 33.2891C26.9206 32.8677 26.8164 32.3741 26.8164 31.8082C26.8164 31.2495 26.9206 30.7571 27.1289 30.331C27.3396 29.9048 27.6332 29.5722 28.0096 29.3331C28.3884 29.094 28.8311 28.9744 29.3377 28.9744C29.6455 28.9744 29.9438 29.0253 30.2326 29.1271C30.5214 29.2289 30.7807 29.3887 31.0103 29.6065C31.2399 29.8243 31.421 30.1072 31.5536 30.4553C31.6862 30.8009 31.7525 31.2211 31.7525 31.7159V32.0923H27.4165V31.2969H30.712C30.712 31.0175 30.6552 30.7701 30.5415 30.5547C30.4279 30.3369 30.2681 30.1652 30.0621 30.0398C29.8585 29.9143 29.6194 29.8516 29.3448 29.8516C29.0465 29.8516 28.7861 29.925 28.5636 30.0717C28.3434 30.2161 28.1729 30.4055 28.0522 30.6399C27.9338 30.8719 27.8746 31.1241 27.8746 31.3963V32.0178C27.8746 32.3823 27.9386 32.6925 28.0664 32.9482C28.1966 33.2038 28.3777 33.3991 28.6097 33.5341C28.8417 33.6667 29.1128 33.733 29.4229 33.733C29.6242 33.733 29.8076 33.7045 29.9734 33.6477C30.1391 33.5885 30.2823 33.5009 30.4031 33.3849C30.5238 33.2689 30.6161 33.1257 30.68 32.9553L31.685 33.1364C31.6045 33.4323 31.4601 33.6915 31.2518 33.9141C31.0458 34.1342 30.7866 34.3059 30.4741 34.429C30.1639 34.5497 29.81 34.6101 29.4123 34.6101ZM33.9924 31.2614V34.5H32.9306V29.0455H33.9498V29.9332H34.0172C34.1427 29.6444 34.3392 29.4124 34.6067 29.2372C34.8766 29.062 35.2163 28.9744 35.6259 28.9744C35.9976 28.9744 36.3231 29.0526 36.6025 29.2088C36.8818 29.3627 37.0984 29.5923 37.2523 29.8977C37.4062 30.2031 37.4831 30.5807 37.4831 31.0305V34.5H36.4213V31.1584C36.4213 30.763 36.3184 30.4541 36.1124 30.2315C35.9064 30.0066 35.6235 29.8942 35.2637 29.8942C35.0175 29.8942 34.7985 29.9474 34.6067 30.054C34.4173 30.1605 34.267 30.3168 34.1557 30.5227C34.0468 30.7263 33.9924 30.9725 33.9924 31.2614ZM41.4533 29.0455V29.8977H38.4739V29.0455H41.4533ZM39.2729 27.7386H40.3347V32.8984C40.3347 33.1044 40.3655 33.2595 40.427 33.3636C40.4886 33.4654 40.5679 33.5353 40.665 33.5732C40.7644 33.6087 40.8721 33.6264 40.9881 33.6264C41.0733 33.6264 41.1479 33.6205 41.2118 33.6087C41.2757 33.5968 41.3255 33.5874 41.361 33.5803L41.5527 34.4574C41.4912 34.4811 41.4036 34.5047 41.29 34.5284C41.1763 34.5545 41.0343 34.5687 40.8638 34.571C40.5845 34.5758 40.324 34.526 40.0826 34.4219C39.8411 34.3177 39.6458 34.1567 39.4966 33.9389C39.3475 33.7211 39.2729 33.4477 39.2729 33.1186V27.7386ZM46.6273 30.3771L45.665 30.5476C45.6247 30.4245 45.5608 30.3073 45.4732 30.196C45.388 30.0848 45.272 29.9936 45.1252 29.9226C44.9784 29.8516 44.7949 29.8161 44.5748 29.8161C44.2741 29.8161 44.0231 29.8835 43.8219 30.0185C43.6207 30.151 43.5201 30.3227 43.5201 30.5334C43.5201 30.7157 43.5875 30.8625 43.7225 30.9737C43.8574 31.085 44.0752 31.1761 44.3759 31.2472L45.2424 31.446C45.7443 31.562 46.1183 31.7408 46.3645 31.9822C46.6107 32.2237 46.7338 32.5374 46.7338 32.9233C46.7338 33.25 46.6391 33.5412 46.4498 33.7969C46.2627 34.0502 46.0011 34.2491 45.665 34.3935C45.3311 34.5379 44.9441 34.6101 44.5037 34.6101C43.8929 34.6101 43.3946 34.4799 43.0087 34.2195C42.6228 33.9567 42.3861 33.5838 42.2985 33.1009L43.3248 32.9446C43.3887 33.2121 43.5201 33.4145 43.7189 33.5518C43.9178 33.6868 44.177 33.7543 44.4966 33.7543C44.8446 33.7543 45.1228 33.6821 45.3311 33.5376C45.5395 33.3909 45.6436 33.2121 45.6436 33.0014C45.6436 32.831 45.5797 32.6877 45.4519 32.5717C45.3264 32.4557 45.1335 32.3681 44.873 32.3089L43.9498 32.1065C43.4408 31.9905 43.0643 31.8059 42.8205 31.5526C42.579 31.2992 42.4583 30.9785 42.4583 30.5902C42.4583 30.2682 42.5482 29.9865 42.7282 29.745C42.9081 29.5036 43.1567 29.3153 43.4739 29.1804C43.7911 29.0431 44.1545 28.9744 44.5641 28.9744C45.1536 28.9744 45.6176 29.1023 45.9561 29.358C46.2947 29.6113 46.5184 29.951 46.6273 30.3771Z" fill="#989AA5"/>
</svg>
