<svg width="242" height="476" viewBox="0 0 242 476" fill="none" xmlns="http://www.w3.org/2000/svg">
<path d="M86.0138 15V3.36364H93.3092V4.875H87.7694V8.42045H92.9285V9.92614H87.7694V13.4886H93.3774V15H86.0138ZM97.2169 9.81818V15H95.518V6.27273H97.1487V7.69318H97.2567C97.4574 7.23106 97.7718 6.85985 98.1998 6.57955C98.6317 6.29924 99.1752 6.15909 99.8305 6.15909C100.425 6.15909 100.946 6.28409 101.393 6.53409C101.84 6.7803 102.187 7.14773 102.433 7.63636C102.679 8.125 102.802 8.72917 102.802 9.44886V15H101.103V9.65341C101.103 9.02083 100.938 8.52652 100.609 8.17045C100.279 7.81061 99.8267 7.63068 99.251 7.63068C98.857 7.63068 98.5067 7.71591 98.1998 7.88636C97.8968 8.05682 97.6563 8.30682 97.4782 8.63636C97.304 8.96212 97.2169 9.35606 97.2169 9.81818ZM109.154 6.27273V7.63636H104.387V6.27273H109.154ZM105.666 4.18182H107.365V12.4375C107.365 12.767 107.414 13.0152 107.512 13.1818C107.611 13.3447 107.738 13.4564 107.893 13.517C108.052 13.5739 108.224 13.6023 108.41 13.6023C108.546 13.6023 108.666 13.5928 108.768 13.5739C108.87 13.5549 108.95 13.5398 109.007 13.5284L109.313 14.9318C109.215 14.9697 109.075 15.0076 108.893 15.0455C108.711 15.0871 108.484 15.1098 108.211 15.1136C107.764 15.1212 107.348 15.0417 106.961 14.875C106.575 14.7083 106.262 14.4508 106.024 14.1023C105.785 13.7538 105.666 13.3163 105.666 12.7898V4.18182ZM114.701 15.1761C113.841 15.1761 113.101 14.9924 112.48 14.625C111.862 14.2538 111.385 13.733 111.048 13.0625C110.715 12.3883 110.548 11.5985 110.548 10.6932C110.548 9.79924 110.715 9.01136 111.048 8.32955C111.385 7.64773 111.855 7.11553 112.457 6.73295C113.063 6.35038 113.771 6.15909 114.582 6.15909C115.074 6.15909 115.552 6.24053 116.014 6.40341C116.476 6.56629 116.891 6.82197 117.258 7.17045C117.626 7.51894 117.915 7.97159 118.127 8.52841C118.34 9.08144 118.446 9.75379 118.446 10.5455V11.1477H111.508V9.875H116.781C116.781 9.42803 116.69 9.0322 116.508 8.6875C116.326 8.33902 116.071 8.06439 115.741 7.86364C115.415 7.66288 115.033 7.5625 114.593 7.5625C114.116 7.5625 113.699 7.67992 113.343 7.91477C112.991 8.14583 112.718 8.44886 112.525 8.82386C112.336 9.19508 112.241 9.59848 112.241 10.0341V11.0284C112.241 11.6117 112.343 12.108 112.548 12.517C112.756 12.9261 113.046 13.2386 113.417 13.4545C113.788 13.6667 114.222 13.7727 114.718 13.7727C115.04 13.7727 115.334 13.7273 115.599 13.6364C115.864 13.5417 116.093 13.4015 116.286 13.2159C116.48 13.0303 116.627 12.8011 116.73 12.5284L118.338 12.8182C118.209 13.2917 117.978 13.7064 117.644 14.0625C117.315 14.4148 116.9 14.6894 116.4 14.8864C115.904 15.0795 115.338 15.1761 114.701 15.1761ZM120.331 15V6.27273H121.973V7.65909H122.063C122.223 7.18939 122.503 6.82008 122.904 6.55114C123.31 6.27841 123.768 6.14205 124.279 6.14205C124.385 6.14205 124.51 6.14583 124.654 6.15341C124.802 6.16098 124.918 6.17045 125.001 6.18182V7.80682C124.933 7.78788 124.812 7.76705 124.637 7.74432C124.463 7.7178 124.289 7.70455 124.115 7.70455C123.713 7.70455 123.355 7.78977 123.041 7.96023C122.73 8.12689 122.484 8.35985 122.302 8.65909C122.12 8.95455 122.029 9.29167 122.029 9.67045V15H120.331ZM130.842 15V3.36364H134.99C135.895 3.36364 136.645 3.52841 137.24 3.85795C137.834 4.1875 138.279 4.63826 138.575 5.21023C138.87 5.77841 139.018 6.41856 139.018 7.13068C139.018 7.84659 138.868 8.49053 138.569 9.0625C138.274 9.63068 137.827 10.0814 137.228 10.4148C136.634 10.7443 135.885 10.9091 134.984 10.9091H132.132V9.42045H134.825C135.397 9.42045 135.861 9.32197 136.217 9.125C136.573 8.92424 136.834 8.65152 137.001 8.30682C137.168 7.96212 137.251 7.57008 137.251 7.13068C137.251 6.69129 137.168 6.30114 137.001 5.96023C136.834 5.61932 136.571 5.35227 136.211 5.15909C135.855 4.96591 135.385 4.86932 134.802 4.86932H132.598V15H130.842ZM142.832 3.36364V15H141.076V3.36364H142.832ZM154.781 3.36364V15H153.167L147.252 6.46591H147.144V15H145.389V3.36364H147.014L152.934 11.9091H153.042V3.36364H154.781Z" fill="#91919B"/>
<circle cx="69.7354" cy="47" r="7" fill="#D9D9D9"/>
<circle cx="103.735" cy="47" r="7" fill="#D9D9D9"/>
<circle cx="137.735" cy="47" r="7" fill="#D9D9D9"/>
<circle cx="171.735" cy="47" r="7" fill="#D9D9D9"/>
<path d="M14.3235 141.882V172H9.76471V146.441H9.58824L2.38235 151.147V146.794L9.89706 141.882H14.3235Z" fill="white"/>
<path d="M103.132 172V168.706L113.324 158.147C114.412 157 115.309 155.995 116.015 155.132C116.73 154.26 117.265 153.431 117.618 152.647C117.971 151.863 118.147 151.029 118.147 150.147C118.147 149.147 117.912 148.284 117.441 147.559C116.971 146.824 116.328 146.26 115.515 145.868C114.701 145.466 113.784 145.265 112.765 145.265C111.686 145.265 110.745 145.485 109.941 145.926C109.137 146.368 108.52 146.99 108.088 147.794C107.657 148.598 107.441 149.539 107.441 150.618H103.103C103.103 148.784 103.525 147.181 104.368 145.809C105.211 144.436 106.368 143.373 107.838 142.618C109.309 141.853 110.98 141.471 112.853 141.471C114.745 141.471 116.412 141.848 117.853 142.603C119.304 143.348 120.436 144.368 121.25 145.662C122.064 146.946 122.471 148.397 122.471 150.015C122.471 151.132 122.26 152.225 121.838 153.294C121.427 154.363 120.706 155.554 119.677 156.868C118.647 158.172 117.216 159.755 115.382 161.618L109.397 167.882V168.103H122.956V172H103.132Z" fill="white"/>
<path d="M219.853 172.412C217.833 172.412 216.03 172.064 214.441 171.368C212.863 170.672 211.613 169.706 210.691 168.471C209.78 167.225 209.289 165.784 209.221 164.147H213.838C213.897 165.039 214.196 165.814 214.735 166.471C215.284 167.118 216 167.618 216.882 167.971C217.765 168.324 218.745 168.5 219.824 168.5C221.01 168.5 222.059 168.294 222.971 167.882C223.892 167.471 224.613 166.897 225.132 166.162C225.652 165.417 225.912 164.559 225.912 163.588C225.912 162.578 225.652 161.691 225.132 160.926C224.623 160.152 223.873 159.544 222.882 159.103C221.902 158.662 220.716 158.441 219.324 158.441H216.78V154.735H219.324C220.441 154.735 221.422 154.534 222.265 154.132C223.118 153.73 223.784 153.172 224.265 152.456C224.745 151.73 224.985 150.882 224.985 149.912C224.985 148.98 224.775 148.172 224.353 147.485C223.941 146.789 223.353 146.245 222.588 145.853C221.833 145.461 220.941 145.265 219.912 145.265C218.931 145.265 218.015 145.446 217.162 145.809C216.319 146.162 215.632 146.672 215.103 147.338C214.574 147.995 214.289 148.784 214.25 149.706H209.853C209.902 148.078 210.382 146.647 211.294 145.412C212.216 144.176 213.431 143.211 214.941 142.515C216.451 141.819 218.128 141.471 219.971 141.471C221.902 141.471 223.569 141.848 224.971 142.603C226.382 143.348 227.471 144.343 228.235 145.588C229.01 146.833 229.392 148.196 229.382 149.676C229.392 151.363 228.922 152.794 227.971 153.971C227.03 155.147 225.775 155.936 224.206 156.338V156.574C226.206 156.877 227.755 157.672 228.853 158.956C229.961 160.24 230.51 161.833 230.5 163.735C230.51 165.392 230.049 166.877 229.118 168.191C228.196 169.505 226.936 170.539 225.338 171.294C223.74 172.039 221.912 172.412 219.853 172.412Z" fill="white"/>
<path d="M2.26471 264.118V260.441L15.2794 239.882H18.1765V245.294H16.3382L7.02941 260.029V260.265H24.8676V264.118H2.26471ZM16.5441 270V263L16.5735 261.324V239.882H20.8824V270H16.5441Z" fill="white"/>
<path d="M121.074 270.412C119.23 270.412 117.574 270.059 116.103 269.353C114.642 268.637 113.476 267.657 112.603 266.412C111.73 265.167 111.265 263.745 111.206 262.147H115.618C115.726 263.441 116.299 264.505 117.338 265.338C118.378 266.172 119.623 266.588 121.074 266.588C122.23 266.588 123.255 266.324 124.147 265.794C125.049 265.255 125.755 264.515 126.265 263.574C126.784 262.632 127.044 261.559 127.044 260.353C127.044 259.127 126.779 258.034 126.25 257.074C125.721 256.113 124.99 255.358 124.059 254.809C123.137 254.26 122.078 253.98 120.882 253.971C119.971 253.971 119.054 254.127 118.132 254.441C117.211 254.755 116.466 255.167 115.897 255.676L111.735 255.059L113.427 239.882H129.985V243.779H117.206L116.25 252.206H116.427C117.015 251.637 117.794 251.162 118.765 250.779C119.745 250.397 120.794 250.206 121.912 250.206C123.745 250.206 125.378 250.642 126.809 251.515C128.25 252.387 129.382 253.578 130.206 255.088C131.039 256.588 131.451 258.314 131.441 260.265C131.451 262.216 131.01 263.956 130.118 265.485C129.235 267.015 128.01 268.221 126.441 269.103C124.882 269.975 123.093 270.412 121.074 270.412Z" fill="white"/>
<path d="M227.882 270.412C226.539 270.392 225.216 270.147 223.912 269.676C222.618 269.206 221.441 268.422 220.382 267.324C219.324 266.225 218.476 264.75 217.838 262.897C217.211 261.044 216.897 258.73 216.897 255.956C216.897 253.328 217.157 250.995 217.677 248.956C218.206 246.917 218.966 245.196 219.956 243.794C220.946 242.382 222.142 241.309 223.544 240.574C224.946 239.838 226.52 239.471 228.265 239.471C230.059 239.471 231.652 239.824 233.044 240.529C234.436 241.235 235.564 242.211 236.427 243.456C237.299 244.701 237.853 246.118 238.088 247.706H233.603C233.299 246.451 232.696 245.426 231.794 244.632C230.892 243.838 229.716 243.441 228.265 243.441C226.059 243.441 224.338 244.402 223.103 246.324C221.878 248.245 221.26 250.917 221.25 254.338H221.471C221.99 253.485 222.628 252.76 223.382 252.162C224.147 251.554 225 251.088 225.941 250.765C226.892 250.431 227.892 250.265 228.941 250.265C230.686 250.265 232.265 250.691 233.677 251.544C235.098 252.387 236.231 253.554 237.074 255.044C237.917 256.534 238.338 258.24 238.338 260.162C238.338 262.083 237.902 263.824 237.03 265.382C236.167 266.941 234.951 268.176 233.382 269.088C231.814 269.99 229.981 270.431 227.882 270.412ZM227.868 266.588C229.025 266.588 230.059 266.304 230.971 265.735C231.882 265.167 232.603 264.402 233.132 263.441C233.662 262.48 233.927 261.407 233.927 260.221C233.927 259.064 233.667 258.01 233.147 257.059C232.637 256.108 231.931 255.353 231.03 254.794C230.137 254.235 229.118 253.956 227.971 253.956C227.098 253.956 226.289 254.123 225.544 254.456C224.809 254.789 224.162 255.25 223.603 255.838C223.044 256.426 222.603 257.103 222.28 257.868C221.966 258.623 221.809 259.422 221.809 260.265C221.809 261.392 222.069 262.436 222.588 263.397C223.118 264.358 223.838 265.132 224.75 265.721C225.672 266.299 226.711 266.588 227.868 266.588Z" fill="white"/>
<path d="M3.91176 368L17.0588 342V341.779H1.85294V337.882H21.7647V341.912L8.66177 368H3.91176Z" fill="white"/>
<path d="M117.309 368.412C115.201 368.412 113.338 368.049 111.721 367.324C110.113 366.598 108.853 365.598 107.941 364.324C107.029 363.049 106.578 361.598 106.588 359.971C106.578 358.696 106.838 357.525 107.368 356.456C107.907 355.377 108.637 354.48 109.559 353.765C110.48 353.039 111.51 352.578 112.647 352.382V352.206C111.147 351.843 109.946 351.039 109.044 349.794C108.142 348.549 107.696 347.118 107.706 345.5C107.696 343.961 108.103 342.588 108.927 341.382C109.76 340.167 110.902 339.211 112.353 338.515C113.804 337.819 115.456 337.471 117.309 337.471C119.142 337.471 120.779 337.824 122.221 338.529C123.672 339.225 124.814 340.181 125.647 341.397C126.48 342.603 126.902 343.971 126.912 345.5C126.902 347.118 126.441 348.549 125.529 349.794C124.618 351.039 123.431 351.843 121.971 352.206V352.382C123.098 352.578 124.113 353.039 125.015 353.765C125.927 354.48 126.652 355.377 127.191 356.456C127.74 357.525 128.02 358.696 128.029 359.971C128.02 361.598 127.559 363.049 126.647 364.324C125.735 365.598 124.471 366.598 122.853 367.324C121.245 368.049 119.397 368.412 117.309 368.412ZM117.309 364.691C118.554 364.691 119.632 364.485 120.544 364.074C121.456 363.652 122.162 363.069 122.662 362.324C123.162 361.569 123.417 360.686 123.427 359.676C123.417 358.627 123.142 357.701 122.603 356.897C122.074 356.093 121.353 355.461 120.441 355C119.529 354.539 118.485 354.309 117.309 354.309C116.123 354.309 115.069 354.539 114.147 355C113.226 355.461 112.5 356.093 111.971 356.897C111.441 357.701 111.181 358.627 111.191 359.676C111.181 360.686 111.422 361.569 111.912 362.324C112.412 363.069 113.123 363.652 114.044 364.074C114.966 364.485 116.054 364.691 117.309 364.691ZM117.309 350.676C118.309 350.676 119.196 350.475 119.971 350.074C120.745 349.672 121.353 349.113 121.794 348.397C122.245 347.681 122.476 346.843 122.485 345.882C122.476 344.941 122.25 344.118 121.809 343.412C121.378 342.706 120.775 342.162 120 341.779C119.226 341.387 118.328 341.191 117.309 341.191C116.27 341.191 115.358 341.387 114.574 341.779C113.799 342.162 113.196 342.706 112.765 343.412C112.333 344.118 112.123 344.941 112.132 345.882C112.123 346.843 112.338 347.681 112.779 348.397C113.221 349.113 113.828 349.672 114.603 350.074C115.387 350.475 116.289 350.676 117.309 350.676Z" fill="white"/>
<path d="M224.382 337.471C225.726 337.48 227.049 337.725 228.353 338.206C229.657 338.686 230.833 339.471 231.882 340.559C232.941 341.647 233.784 343.118 234.412 344.971C235.049 346.814 235.373 349.108 235.382 351.853C235.382 354.49 235.118 356.838 234.588 358.897C234.059 360.946 233.299 362.676 232.309 364.088C231.329 365.5 230.137 366.574 228.735 367.309C227.333 368.044 225.755 368.412 224 368.412C222.206 368.412 220.613 368.059 219.221 367.353C217.829 366.647 216.696 365.672 215.824 364.426C214.951 363.172 214.407 361.73 214.191 360.103H218.677C218.971 361.397 219.569 362.446 220.471 363.25C221.382 364.044 222.559 364.441 224 364.441C226.206 364.441 227.927 363.48 229.162 361.559C230.397 359.627 231.02 356.931 231.03 353.471H230.794C230.284 354.314 229.647 355.039 228.882 355.647C228.128 356.255 227.28 356.725 226.338 357.059C225.397 357.392 224.392 357.559 223.324 357.559C221.588 357.559 220.01 357.132 218.588 356.279C217.167 355.426 216.034 354.255 215.191 352.765C214.348 351.275 213.927 349.574 213.927 347.662C213.927 345.76 214.358 344.034 215.221 342.485C216.093 340.936 217.309 339.711 218.868 338.809C220.436 337.897 222.275 337.451 224.382 337.471ZM224.397 341.294C223.25 341.294 222.216 341.578 221.294 342.147C220.382 342.706 219.662 343.466 219.132 344.426C218.603 345.377 218.338 346.436 218.338 347.603C218.338 348.77 218.593 349.828 219.103 350.779C219.623 351.721 220.329 352.471 221.221 353.029C222.123 353.578 223.152 353.853 224.309 353.853C225.172 353.853 225.976 353.686 226.721 353.353C227.466 353.02 228.118 352.559 228.677 351.971C229.235 351.373 229.672 350.696 229.985 349.941C230.299 349.186 230.456 348.392 230.456 347.559C230.456 346.451 230.191 345.422 229.662 344.471C229.142 343.52 228.427 342.755 227.515 342.176C226.603 341.588 225.564 341.294 224.397 341.294Z" fill="white"/>
<path d="M23.8723 438.86C23.7434 438.86 23.6144 438.828 23.5015 438.763C20.406 437.167 17.7296 436.49 14.505 436.49C11.3289 436.49 8.2978 437.247 5.54082 438.763C5.15387 438.973 4.67019 438.828 4.44447 438.441C4.34392 438.252 4.32137 438.032 4.38167 437.826C4.44196 437.621 4.5803 437.448 4.76693 437.344C7.76575 435.684 11.0548 434.877 14.505 434.877C17.9553 434.877 20.9541 435.635 24.2432 437.296C24.6462 437.538 24.7913 438.021 24.5817 438.408C24.5196 438.544 24.4196 438.659 24.2937 438.739C24.1678 438.819 24.0215 438.861 23.8723 438.86ZM0.800739 447.324C0.639512 447.324 0.478285 447.276 0.333181 447.179C0.162888 447.051 0.0479637 446.863 0.0119873 446.653C-0.0239891 446.443 0.0217097 446.228 0.139708 446.05C1.73586 443.793 3.76732 442.02 6.18573 440.778C11.2805 438.166 17.7296 438.15 22.8082 440.762C25.2266 442.004 27.2581 443.745 28.8543 446.002C29.1122 446.357 29.0155 446.873 28.6608 447.131C28.29 447.389 27.7902 447.308 27.5322 446.969C26.1305 444.953 24.2532 443.314 22.0666 442.197C17.4394 439.827 11.5223 439.827 6.91125 442.213C4.71856 443.342 2.88057 444.954 1.42953 446.969C1.30054 447.211 1.0587 447.324 0.800739 447.324ZM10.8774 466.784C10.6678 466.784 10.4744 466.704 10.3131 466.542C8.91046 465.14 8.1527 464.237 7.07247 462.286C5.96001 460.303 5.37959 457.885 5.37959 455.289C5.37959 450.5 9.47476 446.599 14.505 446.599C19.5353 446.599 23.6305 450.5 23.6305 455.289C23.6305 455.503 23.5456 455.708 23.3944 455.859C23.2432 456.01 23.0382 456.095 22.8244 456.095C22.6106 456.095 22.4055 456.01 22.2543 455.859C22.1032 455.708 22.0182 455.503 22.0182 455.289C22.0182 451.387 18.6486 448.211 14.505 448.211C10.3615 448.211 6.99186 451.387 6.99186 455.289C6.99186 457.61 7.50779 459.755 8.49127 461.48C9.52313 463.35 10.2325 464.14 11.474 465.398C11.7803 465.72 11.7803 466.22 11.474 466.542C11.2805 466.704 11.087 466.784 10.8774 466.784ZM22.4374 463.802C20.5188 463.802 18.8259 463.318 17.4394 462.367C15.0371 460.738 13.6022 458.094 13.6022 455.289C13.6022 455.075 13.6871 454.87 13.8383 454.719C13.9895 454.568 14.1945 454.483 14.4083 454.483C14.6221 454.483 14.8272 454.568 14.9783 454.719C15.1295 454.87 15.2144 455.075 15.2144 455.289C15.2144 457.562 16.3753 459.706 18.3422 461.028C19.487 461.802 20.8251 462.173 22.4374 462.173C22.8244 462.173 23.4693 462.125 24.1142 462.012C24.5495 461.931 24.9848 462.222 25.0493 462.673C25.1299 463.092 24.8397 463.527 24.3883 463.608C23.4693 463.785 22.6631 463.802 22.4374 463.802ZM19.1968 467.123H18.9872C16.4236 466.381 14.7469 465.43 12.9895 463.705C11.8746 462.606 10.9908 461.296 10.3899 459.85C9.7891 458.405 9.48342 456.854 9.49088 455.289C9.49088 452.677 11.7158 450.549 14.4567 450.549C17.1975 450.549 19.4225 452.677 19.4225 455.289C19.4225 457.014 20.9541 458.417 22.776 458.417C24.6301 458.417 26.1295 457.014 26.1295 455.289C26.1295 449.211 20.8896 444.277 14.4406 444.277C9.8617 444.277 5.63755 446.824 3.78344 450.774C3.15466 452.08 2.8322 453.612 2.8322 455.289C2.8322 456.546 2.94506 458.529 3.91242 461.109C4.07365 461.528 3.86405 461.996 3.44486 462.141C3.24585 462.213 3.02671 462.204 2.83403 462.117C2.64135 462.029 2.49031 461.87 2.41301 461.673C1.60688 459.561 1.23605 457.449 1.23605 455.289C1.23605 453.354 1.60687 451.597 2.3324 450.065C4.47672 445.567 9.23292 442.649 14.4406 442.649C21.7603 442.649 27.7418 448.308 27.7418 455.273C27.7418 457.885 25.5169 460.013 22.776 460.013C20.0351 460.013 17.8102 457.885 17.8102 455.273C17.8102 453.548 16.3108 452.145 14.4567 452.145C12.6026 452.145 11.1032 453.548 11.1032 455.273C11.1032 458.03 12.1673 460.609 14.1181 462.544C15.6498 464.06 17.1169 464.898 19.3902 465.511C19.8255 465.64 20.0674 466.091 19.9545 466.51C19.8739 466.881 19.5353 467.123 19.1968 467.123Z" fill="#9D9DA7"/>
<path d="M117.382 466.5C115.059 466.49 113.074 465.877 111.426 464.662C109.779 463.446 108.52 461.676 107.647 459.353C106.775 457.029 106.338 454.23 106.338 450.956C106.338 447.691 106.775 444.902 107.647 442.588C108.529 440.275 109.794 438.51 111.441 437.294C113.098 436.078 115.078 435.471 117.382 435.471C119.686 435.471 121.662 436.083 123.309 437.309C124.956 438.525 126.216 440.289 127.088 442.603C127.971 444.907 128.412 447.691 128.412 450.956C128.412 454.24 127.975 457.044 127.103 459.368C126.23 461.681 124.971 463.451 123.324 464.676C121.676 465.892 119.696 466.5 117.382 466.5ZM117.382 462.574C119.422 462.574 121.015 461.578 122.162 459.588C123.319 457.598 123.897 454.721 123.897 450.956C123.897 448.456 123.632 446.343 123.103 444.618C122.583 442.882 121.833 441.569 120.853 440.676C119.882 439.775 118.725 439.324 117.382 439.324C115.353 439.324 113.76 440.324 112.603 442.324C111.446 444.324 110.863 447.201 110.853 450.956C110.853 453.466 111.113 455.588 111.632 457.324C112.162 459.049 112.912 460.358 113.882 461.25C114.853 462.132 116.02 462.574 117.382 462.574Z" fill="white"/>
<path d="M204.235 450.503C204.161 450.569 204.101 450.646 204.061 450.731C204.021 450.816 204 450.908 204 451C204 451.092 204.021 451.184 204.061 451.269C204.101 451.354 204.161 451.432 204.235 451.497L214.07 460.12L225.6 460.12C226.237 460.12 226.847 459.898 227.297 459.504C227.747 459.109 228 458.574 228 458.016L228 443.985C228 443.427 227.747 442.891 227.297 442.497C226.847 442.102 226.237 441.88 225.6 441.88L214.07 441.88L204.235 450.503Z" fill="#9D9DA7"/>
<path d="M216.48 454.36L219.84 451L223.2 454.36M223.2 447.64L219.839 451L216.48 447.64" stroke="#181820" stroke-width="0.961282" stroke-linecap="round" stroke-linejoin="round"/>
</svg>
