<svg width="43" height="40" viewBox="0 0 43 40" fill="none" xmlns="http://www.w3.org/2000/svg">
<g clip-path="url(#clip0_233_1536)">
<path d="M29.1694 8.14938L29.1886 8.33146L29.1947 8.51738V15.4825C29.1947 15.8741 29.107 16.2597 28.9393 16.6055C28.7717 16.9513 28.5292 17.2469 28.2331 17.4663L28.1019 17.5573L22.5937 21.0399L22.4852 21.1041L22.375 21.1616V12.5462L29.1694 8.14938ZM13.8306 8.14938L20.625 12.5472V21.1607C20.5501 21.1249 20.477 21.0846 20.4062 21.0399L14.899 17.5573C14.5665 17.3471 14.2903 17.0446 14.0983 16.6804C13.9063 16.3162 13.8052 15.9031 13.8052 15.4825V8.51738C13.8052 8.39279 13.814 8.27013 13.8315 8.14938H13.8306ZM22.5937 2.96L28.101 6.44258C28.1447 6.47133 28.1885 6.50008 28.2305 6.53075L21.5 10.8883L14.7695 6.52979C14.8117 6.49873 14.8549 6.46932 14.899 6.44163L20.4062 2.95904C20.7388 2.74876 21.116 2.63806 21.5 2.63806C21.884 2.63806 22.2612 2.74972 22.5937 2.96Z" fill="#989AA5"/>
</g>
<path d="M0.799006 37.5V30.2273H3.39134C3.95715 30.2273 4.4259 30.3303 4.79759 30.5362C5.16927 30.7422 5.44744 31.0239 5.6321 31.3814C5.81676 31.7365 5.90909 32.1366 5.90909 32.5817C5.90909 33.0291 5.81558 33.4316 5.62855 33.7891C5.44389 34.1442 5.16454 34.4259 4.79048 34.6342C4.4188 34.8402 3.95123 34.9432 3.38778 34.9432H1.60511V34.0128H3.28835C3.64583 34.0128 3.93584 33.9512 4.15838 33.8281C4.38092 33.7027 4.54427 33.5322 4.64844 33.3168C4.7526 33.1013 4.80469 32.8563 4.80469 32.5817C4.80469 32.3071 4.7526 32.0632 4.64844 31.8501C4.54427 31.6371 4.37973 31.4702 4.15483 31.3494C3.93229 31.2287 3.63873 31.1683 3.27415 31.1683H1.89631V37.5H0.799006ZM7.11026 37.5V32.0455H8.13654V32.9119H8.19336C8.29279 32.6184 8.46798 32.3875 8.71893 32.2195C8.97224 32.049 9.2587 31.9638 9.5783 31.9638C9.64459 31.9638 9.72272 31.9661 9.81268 31.9709C9.90501 31.9756 9.97721 31.9815 10.0293 31.9886V33.0043C9.98668 32.9924 9.91093 32.9794 9.80202 32.9652C9.69312 32.9486 9.58422 32.9403 9.47532 32.9403C9.22437 32.9403 9.00065 32.9936 8.80415 33.1001C8.61003 33.2043 8.45614 33.3499 8.34251 33.5369C8.22887 33.7216 8.17205 33.9323 8.17205 34.169V37.5H7.11026ZM13.0504 37.6101C12.5391 37.6101 12.0928 37.4929 11.7116 37.2585C11.3305 37.0241 11.0346 36.6963 10.8239 36.2749C10.6132 35.8535 10.5078 35.361 10.5078 34.7976C10.5078 34.2318 10.6132 33.737 10.8239 33.3132C11.0346 32.8894 11.3305 32.5604 11.7116 32.326C12.0928 32.0916 12.5391 31.9744 13.0504 31.9744C13.5618 31.9744 14.008 32.0916 14.3892 32.326C14.7704 32.5604 15.0663 32.8894 15.277 33.3132C15.4877 33.737 15.593 34.2318 15.593 34.7976C15.593 35.361 15.4877 35.8535 15.277 36.2749C15.0663 36.6963 14.7704 37.0241 14.3892 37.2585C14.008 37.4929 13.5618 37.6101 13.0504 37.6101ZM13.054 36.7188C13.3854 36.7188 13.66 36.6312 13.8778 36.456C14.0956 36.2808 14.2566 36.0476 14.3608 35.7564C14.4673 35.4652 14.5206 35.1444 14.5206 34.794C14.5206 34.446 14.4673 34.1264 14.3608 33.8352C14.2566 33.5417 14.0956 33.3061 13.8778 33.1286C13.66 32.951 13.3854 32.8622 13.054 32.8622C12.7202 32.8622 12.4432 32.951 12.223 33.1286C12.0052 33.3061 11.843 33.5417 11.7365 33.8352C11.6323 34.1264 11.5803 34.446 11.5803 34.794C11.5803 35.1444 11.6323 35.4652 11.7365 35.7564C11.843 36.0476 12.0052 36.2808 12.223 36.456C12.4432 36.6312 12.7202 36.7188 13.054 36.7188ZM18.8201 37.6065C18.3798 37.6065 17.9868 37.4941 17.6412 37.2692C17.2979 37.0419 17.028 36.7187 16.8315 36.2997C16.6374 35.8783 16.5403 35.3729 16.5403 34.7834C16.5403 34.1939 16.6386 33.6896 16.835 33.2706C17.0339 32.8516 17.3062 32.5308 17.6518 32.3082C17.9975 32.0857 18.3893 31.9744 18.8272 31.9744C19.1658 31.9744 19.438 32.0312 19.644 32.1449C19.8523 32.2562 20.0133 32.3864 20.127 32.5355C20.243 32.6847 20.3329 32.8161 20.3968 32.9297H20.4608V30.2273H21.5225V37.5H20.4856V36.6513H20.3968C20.3329 36.7673 20.2406 36.8999 20.1199 37.049C20.0015 37.1982 19.8381 37.3284 19.6298 37.4396C19.4215 37.5509 19.1516 37.6065 18.8201 37.6065ZM19.0545 36.701C19.3599 36.701 19.618 36.6205 19.8287 36.4595C20.0417 36.2962 20.2027 36.0701 20.3116 35.7812C20.4229 35.4924 20.4785 35.1562 20.4785 34.7727C20.4785 34.3939 20.4241 34.0625 20.3152 33.7784C20.2063 33.4943 20.0465 33.273 19.8358 33.1143C19.6251 32.9557 19.3646 32.8764 19.0545 32.8764C18.7349 32.8764 18.4686 32.9593 18.2555 33.125C18.0424 33.2907 17.8815 33.5168 17.7725 33.8033C17.666 34.0897 17.6127 34.4129 17.6127 34.7727C17.6127 35.1373 17.6672 35.4652 17.7761 35.7564C17.885 36.0476 18.046 36.2784 18.2591 36.4489C18.4745 36.617 18.7396 36.701 19.0545 36.701ZM26.4933 35.2379V32.0455H27.5586V37.5H26.5146V36.5554H26.4577C26.3323 36.8466 26.131 37.0893 25.854 37.2834C25.5794 37.4751 25.2373 37.571 24.8278 37.571C24.4774 37.571 24.1673 37.4941 23.8974 37.3402C23.6299 37.1839 23.4192 36.9531 23.2653 36.6477C23.1138 36.3423 23.038 35.9647 23.038 35.5149V32.0455H24.0998V35.3871C24.0998 35.7588 24.2028 36.0547 24.4087 36.2749C24.6147 36.495 24.8822 36.6051 25.2113 36.6051C25.4102 36.6051 25.6078 36.5554 25.8043 36.456C26.0032 36.3565 26.1677 36.2062 26.2979 36.005C26.4305 35.8037 26.4956 35.5481 26.4933 35.2379ZM31.2828 37.6101C30.7549 37.6101 30.3004 37.4905 29.9192 37.2514C29.5404 37.0099 29.2492 36.6773 29.0456 36.2536C28.842 35.8298 28.7402 35.3445 28.7402 34.7976C28.7402 34.2436 28.8444 33.7547 29.0527 33.331C29.2611 32.9048 29.5546 32.5722 29.9334 32.3331C30.3122 32.094 30.7585 31.9744 31.2722 31.9744C31.6865 31.9744 32.0558 32.0514 32.3801 32.2053C32.7045 32.3568 32.9661 32.5698 33.165 32.8445C33.3662 33.1191 33.4857 33.4399 33.5236 33.8068H32.4902C32.4334 33.5511 32.3032 33.331 32.0996 33.1463C31.8984 32.9616 31.6285 32.8693 31.29 32.8693C30.994 32.8693 30.7348 32.9474 30.5123 33.1037C30.2921 33.2576 30.1204 33.4777 29.9973 33.7642C29.8742 34.0483 29.8127 34.3845 29.8127 34.7727C29.8127 35.1705 29.873 35.5137 29.9938 35.8026C30.1145 36.0914 30.285 36.3151 30.5051 36.4737C30.7277 36.6323 30.9893 36.7116 31.29 36.7116C31.4912 36.7116 31.6735 36.675 31.8368 36.6016C32.0025 36.5258 32.141 36.4181 32.2523 36.2784C32.3659 36.1387 32.4453 35.9706 32.4902 35.7741H33.5236C33.4857 36.1269 33.3709 36.4418 33.1792 36.7188C32.9874 36.9957 32.7305 37.2135 32.4086 37.3722C32.089 37.5308 31.7137 37.6101 31.2828 37.6101ZM37.2053 32.0455V32.8977H34.2259V32.0455H37.2053ZM35.0249 30.7386H36.0866V35.8984C36.0866 36.1044 36.1174 36.2595 36.179 36.3636C36.2405 36.4654 36.3198 36.5353 36.4169 36.5732C36.5163 36.6087 36.6241 36.6264 36.7401 36.6264C36.8253 36.6264 36.8999 36.6205 36.9638 36.6087C37.0277 36.5968 37.0774 36.5874 37.1129 36.5803L37.3047 37.4574C37.2431 37.4811 37.1555 37.5047 37.0419 37.5284C36.9283 37.5545 36.7862 37.5687 36.6158 37.571C36.3364 37.5758 36.076 37.526 35.8345 37.4219C35.593 37.3177 35.3977 37.1567 35.2486 36.9389C35.0994 36.7211 35.0249 36.4477 35.0249 36.1186V30.7386ZM42.3793 33.3771L41.4169 33.5476C41.3767 33.4245 41.3127 33.3073 41.2251 33.196C41.1399 33.0848 41.0239 32.9936 40.8771 32.9226C40.7304 32.8516 40.5469 32.8161 40.3267 32.8161C40.026 32.8161 39.7751 32.8835 39.5739 33.0185C39.3726 33.151 39.272 33.3227 39.272 33.5334C39.272 33.7157 39.3395 33.8625 39.4744 33.9737C39.6094 34.085 39.8272 34.1761 40.1278 34.2472L40.9943 34.446C41.4962 34.562 41.8703 34.7408 42.1165 34.9822C42.3627 35.2237 42.4858 35.5374 42.4858 35.9233C42.4858 36.25 42.3911 36.5412 42.2017 36.7969C42.0147 37.0502 41.7531 37.2491 41.4169 37.3935C41.0831 37.5379 40.696 37.6101 40.2557 37.6101C39.6449 37.6101 39.1465 37.4799 38.7607 37.2195C38.3748 36.9567 38.138 36.5838 38.0504 36.1009L39.0767 35.9446C39.1406 36.2121 39.272 36.4145 39.4709 36.5518C39.6697 36.6868 39.929 36.7543 40.2486 36.7543C40.5966 36.7543 40.8748 36.6821 41.0831 36.5376C41.2914 36.3909 41.3956 36.2121 41.3956 36.0014C41.3956 35.831 41.3317 35.6877 41.2038 35.5717C41.0784 35.4557 40.8854 35.3681 40.625 35.3089L39.7017 35.1065C39.1927 34.9905 38.8163 34.8059 38.5724 34.5526C38.331 34.2992 38.2102 33.9785 38.2102 33.5902C38.2102 33.2682 38.3002 32.9865 38.4801 32.745C38.66 32.5036 38.9086 32.3153 39.2259 32.1804C39.5431 32.0431 39.9065 31.9744 40.3161 31.9744C40.9055 31.9744 41.3696 32.1023 41.7081 32.358C42.0466 32.6113 42.2704 32.951 42.3793 33.3771Z" fill="#989AA5"/>
<defs>
<clipPath id="clip0_233_1536">
<rect width="21" height="23" fill="white" transform="translate(11 0.5)"/>
</clipPath>
</defs>
</svg>
