<svg width="46" height="40" viewBox="0 0 46 40" fill="none" xmlns="http://www.w3.org/2000/svg">
<circle cx="23" cy="9.75" r="9.75" fill="#999CA5"/>
<path fill-rule="evenodd" clip-rule="evenodd" d="M19.4722 14.7778L18.25 13.5556L21.9167 9.88894L18.25 6.22228L19.4722 5.00005L24.3611 9.88894L19.4722 14.7778Z" fill="#1B1E27"/>
<path fill-rule="evenodd" clip-rule="evenodd" d="M23.3611 14.7778L22.1389 13.5556L25.8056 9.88894L22.1389 6.22228L23.3611 5.00005L28.25 9.88894L23.3611 14.7778Z" fill="#1B1E27"/>
<path d="M0.440341 31.1719V30.2273H6.06889V31.1719H3.79972V37.5H2.70597V31.1719H0.440341ZM6.66104 37.5V32.0455H7.68732V32.9119H7.74414C7.84357 32.6184 8.01876 32.3875 8.26971 32.2195C8.52302 32.049 8.80948 31.9638 9.12908 31.9638C9.19537 31.9638 9.2735 31.9661 9.36346 31.9709C9.45579 31.9756 9.52799 31.9815 9.58008 31.9886V33.0043C9.53746 32.9924 9.46171 32.9794 9.35281 32.9652C9.2439 32.9486 9.135 32.9403 9.0261 32.9403C8.77515 32.9403 8.55143 32.9936 8.35494 33.1001C8.16081 33.2043 8.00692 33.3499 7.89329 33.5369C7.77965 33.7216 7.72283 33.9323 7.72283 34.169V37.5H6.66104ZM12.0375 37.6207C11.6918 37.6207 11.3793 37.5568 11.1 37.429C10.8206 37.2988 10.5993 37.1106 10.4359 36.8643C10.2749 36.6181 10.1944 36.3163 10.1944 35.9588C10.1944 35.651 10.2536 35.3977 10.372 35.1989C10.4904 35 10.6502 34.8426 10.8514 34.7266C11.0526 34.6106 11.2775 34.523 11.5261 34.4638C11.7747 34.4046 12.028 34.3596 12.286 34.3288C12.6127 34.291 12.8779 34.2602 13.0815 34.2365C13.2851 34.2105 13.4331 34.169 13.5254 34.1122C13.6177 34.0554 13.6639 33.9631 13.6639 33.8352V33.8104C13.6639 33.5002 13.5763 33.2599 13.4011 33.0895C13.2283 32.919 12.9702 32.8338 12.627 32.8338C12.2695 32.8338 11.9877 32.9131 11.7818 33.0717C11.5782 33.228 11.4373 33.402 11.3592 33.5938L10.3613 33.3665C10.4797 33.035 10.6525 32.7675 10.8798 32.5639C11.1094 32.358 11.3734 32.2088 11.6717 32.1165C11.97 32.0218 12.2837 31.9744 12.6127 31.9744C12.8306 31.9744 13.0614 32.0005 13.3052 32.0526C13.5514 32.1023 13.7811 32.1946 13.9941 32.3295C14.2096 32.4645 14.3859 32.6574 14.5233 32.9084C14.6606 33.157 14.7292 33.4801 14.7292 33.8778V37.5H13.6923V36.7543H13.6497C13.581 36.8916 13.478 37.0265 13.3407 37.1591C13.2034 37.2917 13.027 37.4018 12.8116 37.4893C12.5962 37.5769 12.3381 37.6207 12.0375 37.6207ZM12.2683 36.7685C12.5618 36.7685 12.8128 36.7105 13.0211 36.5945C13.2318 36.4785 13.3916 36.3269 13.5005 36.1399C13.6118 35.9505 13.6674 35.7481 13.6674 35.5327V34.8295C13.6296 34.8674 13.5562 34.9029 13.4473 34.9361C13.3407 34.9669 13.2188 34.9941 13.0815 35.0178C12.9442 35.0391 12.8104 35.0592 12.6802 35.0781C12.55 35.0947 12.4411 35.1089 12.3535 35.1207C12.1475 35.1468 11.9593 35.1906 11.7889 35.2521C11.6208 35.3137 11.4859 35.4025 11.3841 35.5185C11.2846 35.6321 11.2349 35.7836 11.2349 35.973C11.2349 36.2358 11.332 36.4347 11.5261 36.5696C11.7202 36.7022 11.9676 36.7685 12.2683 36.7685ZM17.2053 34.2614V37.5H16.1435V32.0455H17.1626V32.9332H17.2301C17.3556 32.6444 17.5521 32.4124 17.8196 32.2372C18.0895 32.062 18.4292 31.9744 18.8388 31.9744C19.2105 31.9744 19.536 32.0526 19.8153 32.2088C20.0947 32.3627 20.3113 32.5923 20.4652 32.8977C20.6191 33.2031 20.696 33.5807 20.696 34.0305V37.5H19.6342V34.1584C19.6342 33.763 19.5313 33.4541 19.3253 33.2315C19.1193 33.0066 18.8364 32.8942 18.4766 32.8942C18.2304 32.8942 18.0114 32.9474 17.8196 33.054C17.6302 33.1605 17.4799 33.3168 17.3686 33.5227C17.2597 33.7263 17.2053 33.9725 17.2053 34.2614ZM26.2074 33.3771L25.245 33.5476C25.2048 33.4245 25.1409 33.3073 25.0533 33.196C24.968 33.0848 24.852 32.9936 24.7053 32.9226C24.5585 32.8516 24.375 32.8161 24.1548 32.8161C23.8542 32.8161 23.6032 32.8835 23.402 33.0185C23.2008 33.151 23.1001 33.3227 23.1001 33.5334C23.1001 33.7157 23.1676 33.8625 23.3026 33.9737C23.4375 34.085 23.6553 34.1761 23.956 34.2472L24.8224 34.446C25.3243 34.562 25.6984 34.7408 25.9446 34.9822C26.1908 35.2237 26.3139 35.5374 26.3139 35.9233C26.3139 36.25 26.2192 36.5412 26.0298 36.7969C25.8428 37.0502 25.5812 37.2491 25.245 37.3935C24.9112 37.5379 24.5241 37.6101 24.0838 37.6101C23.473 37.6101 22.9747 37.4799 22.5888 37.2195C22.2029 36.9567 21.9661 36.5838 21.8786 36.1009L22.9048 35.9446C22.9688 36.2121 23.1001 36.4145 23.299 36.5518C23.4979 36.6868 23.7571 36.7543 24.0767 36.7543C24.4247 36.7543 24.7029 36.6821 24.9112 36.5376C25.1196 36.3909 25.2237 36.2121 25.2237 36.0014C25.2237 35.831 25.1598 35.6877 25.032 35.5717C24.9065 35.4557 24.7135 35.3681 24.4531 35.3089L23.5298 35.1065C23.0208 34.9905 22.6444 34.8059 22.4006 34.5526C22.1591 34.2992 22.0384 33.9785 22.0384 33.5902C22.0384 33.2682 22.1283 32.9865 22.3082 32.745C22.4882 32.5036 22.7367 32.3153 23.054 32.1804C23.3712 32.0431 23.7346 31.9744 24.1442 31.9744C24.7337 31.9744 25.1977 32.1023 25.5362 32.358C25.8748 32.6113 26.0985 32.951 26.2074 33.3771ZM30.0772 32.0455V32.8977H26.9949V32.0455H30.0772ZM27.84 37.5V31.4134C27.84 31.0724 27.9146 30.7895 28.0637 30.5646C28.2129 30.3374 28.4106 30.1681 28.6568 30.0568C28.903 29.9432 29.1705 29.8864 29.4593 29.8864C29.6724 29.8864 29.8547 29.9041 30.0062 29.9396C30.1577 29.9728 30.2702 30.0036 30.3436 30.032L30.095 30.8913C30.0453 30.8771 29.9814 30.8606 29.9032 30.8416C29.8251 30.8203 29.7304 30.8097 29.6191 30.8097C29.3611 30.8097 29.1764 30.8736 29.0652 31.0014C28.9563 31.1293 28.9018 31.3139 28.9018 31.5554V37.5H27.84ZM33.3088 37.6101C32.7714 37.6101 32.3085 37.4953 31.9203 37.2656C31.5344 37.0336 31.2361 36.7081 31.0254 36.2891C30.8171 35.8677 30.7129 35.3741 30.7129 34.8082C30.7129 34.2495 30.8171 33.7571 31.0254 33.331C31.2361 32.9048 31.5297 32.5722 31.9061 32.3331C32.2849 32.094 32.7276 31.9744 33.2342 31.9744C33.542 31.9744 33.8403 32.0253 34.1291 32.1271C34.4179 32.2289 34.6771 32.3887 34.9068 32.6065C35.1364 32.8243 35.3175 33.1072 35.4501 33.4553C35.5827 33.8009 35.649 34.2211 35.649 34.7159V35.0923H31.313V34.2969H34.6085C34.6085 34.0175 34.5517 33.7701 34.438 33.5547C34.3244 33.3369 34.1646 33.1652 33.9586 33.0398C33.755 32.9143 33.5159 32.8516 33.2413 32.8516C32.943 32.8516 32.6826 32.925 32.46 33.0717C32.2399 33.2161 32.0694 33.4055 31.9487 33.6399C31.8303 33.8719 31.7711 34.1241 31.7711 34.3963V35.0178C31.7711 35.3823 31.835 35.6925 31.9629 35.9482C32.0931 36.2038 32.2742 36.3991 32.5062 36.5341C32.7382 36.6667 33.0093 36.733 33.3194 36.733C33.5207 36.733 33.7041 36.7045 33.8699 36.6477C34.0356 36.5885 34.1788 36.5009 34.2995 36.3849C34.4203 36.2689 34.5126 36.1257 34.5765 35.9553L35.5815 36.1364C35.501 36.4323 35.3566 36.6915 35.1483 36.9141C34.9423 37.1342 34.6831 37.3059 34.3706 37.429C34.0604 37.5497 33.7065 37.6101 33.3088 37.6101ZM36.8271 37.5V32.0455H37.8533V32.9119H37.9102C38.0096 32.6184 38.1848 32.3875 38.4357 32.2195C38.689 32.049 38.9755 31.9638 39.2951 31.9638C39.3614 31.9638 39.4395 31.9661 39.5295 31.9709C39.6218 31.9756 39.694 31.9815 39.7461 31.9886V33.0043C39.7035 32.9924 39.6277 32.9794 39.5188 32.9652C39.4099 32.9486 39.301 32.9403 39.1921 32.9403C38.9412 32.9403 38.7174 32.9936 38.521 33.1001C38.3268 33.2043 38.1729 33.3499 38.0593 33.5369C37.9457 33.7216 37.8888 33.9323 37.8888 34.169V37.5H36.8271ZM44.7523 33.3771L43.79 33.5476C43.7497 33.4245 43.6858 33.3073 43.5982 33.196C43.513 33.0848 43.397 32.9936 43.2502 32.9226C43.1034 32.8516 42.9199 32.8161 42.6998 32.8161C42.3991 32.8161 42.1481 32.8835 41.9469 33.0185C41.7457 33.151 41.6451 33.3227 41.6451 33.5334C41.6451 33.7157 41.7125 33.8625 41.8475 33.9737C41.9824 34.085 42.2002 34.1761 42.5009 34.2472L43.3674 34.446C43.8693 34.562 44.2433 34.7408 44.4895 34.9822C44.7357 35.2237 44.8588 35.5374 44.8588 35.9233C44.8588 36.25 44.7641 36.5412 44.5748 36.7969C44.3877 37.0502 44.1261 37.2491 43.79 37.3935C43.4561 37.5379 43.0691 37.6101 42.6287 37.6101C42.0179 37.6101 41.5196 37.4799 41.1337 37.2195C40.7478 36.9567 40.5111 36.5838 40.4235 36.1009L41.4498 35.9446C41.5137 36.2121 41.6451 36.4145 41.8439 36.5518C42.0428 36.6868 42.302 36.7543 42.6216 36.7543C42.9696 36.7543 43.2478 36.6821 43.4561 36.5376C43.6645 36.3909 43.7686 36.2121 43.7686 36.0014C43.7686 35.831 43.7047 35.6877 43.5769 35.5717C43.4514 35.4557 43.2585 35.3681 42.998 35.3089L42.0748 35.1065C41.5658 34.9905 41.1893 34.8059 40.9455 34.5526C40.704 34.2992 40.5833 33.9785 40.5833 33.5902C40.5833 33.2682 40.6732 32.9865 40.8532 32.745C41.0331 32.5036 41.2817 32.3153 41.5989 32.1804C41.9161 32.0431 42.2795 31.9744 42.6891 31.9744C43.2786 31.9744 43.7426 32.1023 44.0811 32.358C44.4197 32.6113 44.6434 32.951 44.7523 33.3771Z" fill="#989AA5"/>
</svg>
