<svg width="24" height="20" viewBox="0 0 24 20" fill="none" xmlns="http://www.w3.org/2000/svg">
<path d="M0.235016 9.50343C0.160519 9.5686 0.101414 9.64601 0.061086 9.73124C0.020758 9.81647 -4.02681e-07 9.90784 -3.98648e-07 10.0001C-3.94614e-07 10.0924 0.0207581 10.1838 0.061086 10.269C0.101414 10.3542 0.160519 10.4316 0.235016 10.4968L10.0696 19.1201L21.6001 19.1201C22.2366 19.1201 22.847 18.8984 23.2971 18.5037C23.7472 18.109 24 17.5737 24 17.0155L24 2.98473C24 2.42655 23.7472 1.89124 23.2971 1.49654C22.847 1.10185 22.2366 0.880118 21.6001 0.880118L10.0696 0.880119L0.235016 9.50343Z" fill="#9D9DA7"/>
</svg>
