<svg width="24" height="20" viewBox="0 0 24 20" fill="none" xmlns="http://www.w3.org/2000/svg">
<path fill-rule="evenodd" clip-rule="evenodd" d="M3.9125 19.8213C2.37701 18.2333 1.34298 16.2284 0.939379 14.0566C0.535775 11.8849 0.78045 9.64236 1.64289 7.60873C2.50534 5.57511 3.94738 3.84039 5.78919 2.62089C7.63099 1.4014 9.79106 0.751099 12 0.751099C14.2089 0.751099 16.369 1.4014 18.2108 2.62089C20.0526 3.84039 21.4947 5.57511 22.3571 7.60873C23.2195 9.64236 23.4642 11.8849 23.0606 14.0566C22.657 16.2284 21.623 18.2333 20.0875 19.8213C20.0703 19.8389 20.0497 19.853 20.0269 19.8626C20.0041 19.8722 19.9797 19.8771 19.955 19.8771C19.9303 19.8771 19.9059 19.8722 19.8831 19.8626C19.8603 19.853 19.8397 19.8389 19.8225 19.8213L14.785 14.7838C14.7491 14.7489 14.7011 14.7293 14.6511 14.7288C14.6011 14.7283 14.5528 14.7471 14.5162 14.7813C13.8272 15.406 12.9301 15.7514 12 15.75C11.0699 15.7514 10.1727 15.406 9.48375 14.7813C9.44725 14.7475 9.39923 14.7289 9.3495 14.7294C9.29978 14.7299 9.25211 14.7493 9.21625 14.7838L4.17875 19.8213C4.16151 19.8389 4.14091 19.853 4.11815 19.8626C4.09539 19.8722 4.07095 19.8771 4.04625 19.8771C4.02155 19.8771 3.9971 19.8722 3.97434 19.8626C3.95159 19.853 3.92973 19.8389 3.9125 19.8213ZM18.895 9.32126C19.1727 9.14747 19.3711 8.87159 19.4475 8.55301C19.5238 8.23442 19.4721 7.89858 19.3033 7.61778C19.1346 7.33697 18.8623 7.13363 18.5452 7.05152C18.228 6.96942 17.8913 7.01511 17.6075 7.17876L11.3575 10.9288C11.0798 11.1025 10.8814 11.3784 10.805 11.697C10.7287 12.0156 10.7804 12.3514 10.9492 12.6322C11.1179 12.913 11.3902 13.1164 11.7073 13.1985C12.0245 13.2806 12.3612 13.2349 12.645 13.0713L18.895 9.32126Z" fill="#30FF83"/>
</svg>
