<svg width="352" height="114" viewBox="0 0 352 114" fill="none" xmlns="http://www.w3.org/2000/svg">
<rect width="165" height="50" rx="8" fill="#1F2229"/>
<rect x="0.25" y="0.25" width="164.5" height="49.5" rx="7.75" stroke="#989AA5" stroke-opacity="0.5" stroke-width="0.5"/>
<path d="M18.625 22.4205C18.5644 21.8826 18.3144 21.4659 17.875 21.1705C17.4356 20.8712 16.8826 20.7216 16.2159 20.7216C15.7386 20.7216 15.3258 20.7973 14.9773 20.9489C14.6288 21.0966 14.358 21.3011 14.1648 21.5625C13.9754 21.8201 13.8807 22.1136 13.8807 22.4432C13.8807 22.7197 13.9451 22.9583 14.0739 23.1591C14.2064 23.3598 14.3788 23.5284 14.5909 23.6648C14.8068 23.7973 15.0379 23.9091 15.2841 24C15.5303 24.0871 15.767 24.1591 15.9943 24.2159L17.1307 24.5114C17.5019 24.6023 17.8826 24.7254 18.2727 24.8807C18.6629 25.036 19.0246 25.2405 19.358 25.4943C19.6913 25.7481 19.9602 26.0625 20.1648 26.4375C20.3731 26.8125 20.4773 27.2614 20.4773 27.7841C20.4773 28.4432 20.3068 29.0284 19.9659 29.5398C19.6288 30.0511 19.1383 30.4545 18.4943 30.75C17.8542 31.0455 17.0795 31.1932 16.1705 31.1932C15.2992 31.1932 14.5455 31.0549 13.9091 30.7784C13.2727 30.5019 12.7746 30.1098 12.4148 29.6023C12.0549 29.0909 11.8561 28.4848 11.8182 27.7841H13.5795C13.6136 28.2045 13.75 28.5549 13.9886 28.8352C14.2311 29.1117 14.5398 29.3182 14.9148 29.4545C15.2936 29.5871 15.7083 29.6534 16.1591 29.6534C16.6553 29.6534 17.0966 29.5758 17.483 29.4205C17.8731 29.2614 18.1799 29.0417 18.4034 28.7614C18.6269 28.4773 18.7386 28.1458 18.7386 27.767C18.7386 27.4223 18.6402 27.1402 18.4432 26.9205C18.25 26.7008 17.9867 26.5189 17.6534 26.375C17.3239 26.2311 16.9508 26.1042 16.5341 25.9943L15.1591 25.6193C14.2273 25.3655 13.4886 24.9924 12.9432 24.5C12.4015 24.0076 12.1307 23.3561 12.1307 22.5455C12.1307 21.875 12.3125 21.2898 12.6761 20.7898C13.0398 20.2898 13.5322 19.9015 14.1534 19.625C14.7746 19.3447 15.4754 19.2045 16.2557 19.2045C17.0436 19.2045 17.7386 19.3428 18.3409 19.6193C18.947 19.8958 19.4242 20.2765 19.7727 20.7614C20.1212 21.2424 20.303 21.7955 20.3182 22.4205H18.625ZM26.2003 31.1761C25.3404 31.1761 24.5999 30.9924 23.9787 30.625C23.3613 30.2538 22.884 29.733 22.5469 29.0625C22.2135 28.3883 22.0469 27.5985 22.0469 26.6932C22.0469 25.7992 22.2135 25.0114 22.5469 24.3295C22.884 23.6477 23.3537 23.1155 23.956 22.733C24.562 22.3504 25.2704 22.1591 26.081 22.1591C26.5734 22.1591 27.0507 22.2405 27.5128 22.4034C27.9749 22.5663 28.3897 22.822 28.7571 23.1705C29.1245 23.5189 29.4143 23.9716 29.6264 24.5284C29.8385 25.0814 29.9446 25.7538 29.9446 26.5455V27.1477H23.0071V25.875H28.2798C28.2798 25.428 28.1889 25.0322 28.0071 24.6875C27.8253 24.339 27.5696 24.0644 27.2401 23.8636C26.9143 23.6629 26.5317 23.5625 26.0923 23.5625C25.6151 23.5625 25.1984 23.6799 24.8423 23.9148C24.4901 24.1458 24.2173 24.4489 24.0241 24.8239C23.8348 25.1951 23.7401 25.5985 23.7401 26.0341V27.0284C23.7401 27.6117 23.8423 28.108 24.0469 28.517C24.2552 28.9261 24.545 29.2386 24.9162 29.4545C25.2874 29.6667 25.7211 29.7727 26.2173 29.7727C26.5393 29.7727 26.8329 29.7273 27.098 29.6364C27.3632 29.5417 27.5923 29.4015 27.7855 29.2159C27.9787 29.0303 28.1264 28.8011 28.2287 28.5284L29.8366 28.8182C29.7079 29.2917 29.4768 29.7064 29.1435 30.0625C28.8139 30.4148 28.3991 30.6894 27.8991 30.8864C27.4029 31.0795 26.8366 31.1761 26.2003 31.1761ZM33.5284 19.3636V31H31.8295V19.3636H33.5284ZM39.5753 31.1761C38.7154 31.1761 37.9749 30.9924 37.3537 30.625C36.7363 30.2538 36.259 29.733 35.9219 29.0625C35.5885 28.3883 35.4219 27.5985 35.4219 26.6932C35.4219 25.7992 35.5885 25.0114 35.9219 24.3295C36.259 23.6477 36.7287 23.1155 37.331 22.733C37.937 22.3504 38.6454 22.1591 39.456 22.1591C39.9484 22.1591 40.4257 22.2405 40.8878 22.4034C41.3499 22.5663 41.7647 22.822 42.1321 23.1705C42.4995 23.5189 42.7893 23.9716 43.0014 24.5284C43.2135 25.0814 43.3196 25.7538 43.3196 26.5455V27.1477H36.3821V25.875H41.6548C41.6548 25.428 41.5639 25.0322 41.3821 24.6875C41.2003 24.339 40.9446 24.0644 40.6151 23.8636C40.2893 23.6629 39.9067 23.5625 39.4673 23.5625C38.9901 23.5625 38.5734 23.6799 38.2173 23.9148C37.8651 24.1458 37.5923 24.4489 37.3991 24.8239C37.2098 25.1951 37.1151 25.5985 37.1151 26.0341V27.0284C37.1151 27.6117 37.2173 28.108 37.4219 28.517C37.6302 28.9261 37.92 29.2386 38.2912 29.4545C38.6624 29.6667 39.0961 29.7727 39.5923 29.7727C39.9143 29.7727 40.2079 29.7273 40.473 29.6364C40.7382 29.5417 40.9673 29.4015 41.1605 29.2159C41.3537 29.0303 41.5014 28.8011 41.6037 28.5284L43.2116 28.8182C43.0829 29.2917 42.8518 29.7064 42.5185 30.0625C42.1889 30.4148 41.7741 30.6894 41.2741 30.8864C40.7779 31.0795 40.2116 31.1761 39.5753 31.1761ZM48.8807 31.1761C48.036 31.1761 47.3087 30.9848 46.6989 30.6023C46.0928 30.2159 45.6269 29.6837 45.3011 29.0057C44.9754 28.3277 44.8125 27.5511 44.8125 26.6761C44.8125 25.7898 44.9792 25.0076 45.3125 24.3295C45.6458 23.6477 46.1155 23.1155 46.7216 22.733C47.3277 22.3504 48.0417 22.1591 48.8636 22.1591C49.5265 22.1591 50.1174 22.2822 50.6364 22.5284C51.1553 22.7708 51.5739 23.1117 51.892 23.5511C52.214 23.9905 52.4053 24.5038 52.4659 25.0909H50.8125C50.7216 24.6818 50.5133 24.3295 50.1875 24.0341C49.8655 23.7386 49.4337 23.5909 48.892 23.5909C48.4186 23.5909 48.0038 23.7159 47.6477 23.9659C47.2955 24.2121 47.0208 24.5644 46.8239 25.0227C46.6269 25.4773 46.5284 26.0152 46.5284 26.6364C46.5284 27.2727 46.625 27.822 46.8182 28.2841C47.0114 28.7462 47.2841 29.1042 47.6364 29.358C47.9924 29.6117 48.411 29.7386 48.892 29.7386C49.214 29.7386 49.5057 29.6799 49.767 29.5625C50.0322 29.4413 50.2538 29.2689 50.4318 29.0455C50.6136 28.822 50.7405 28.553 50.8125 28.2386H52.4659C52.4053 28.803 52.2216 29.3068 51.9148 29.75C51.608 30.1932 51.197 30.5417 50.6818 30.7955C50.1705 31.0492 49.5701 31.1761 48.8807 31.1761ZM58.3565 22.2727V23.6364H53.5895V22.2727H58.3565ZM54.8679 20.1818H56.5668V28.4375C56.5668 28.767 56.616 29.0152 56.7145 29.1818C56.813 29.3447 56.9399 29.4564 57.0952 29.517C57.2543 29.5739 57.4266 29.6023 57.6122 29.6023C57.7486 29.6023 57.8679 29.5928 57.9702 29.5739C58.0724 29.5549 58.152 29.5398 58.2088 29.5284L58.5156 30.9318C58.4171 30.9697 58.277 31.0076 58.0952 31.0455C57.9134 31.0871 57.6861 31.1098 57.4134 31.1136C56.9664 31.1212 56.5497 31.0417 56.1634 30.875C55.777 30.7083 55.4645 30.4508 55.2259 30.1023C54.9872 29.7538 54.8679 29.3163 54.8679 28.7898V20.1818ZM65.5895 31H63.7259L67.9134 19.3636H69.9418L74.1293 31H72.2656L68.9759 21.4773H68.8849L65.5895 31ZM65.902 26.4432H71.9474V27.9205H65.902V26.4432ZM77.3722 19.3636V31H75.6733V19.3636H77.3722ZM81.3565 19.3636V31H79.6577V19.3636H81.3565Z" fill="#D9D9D9"/>
<circle cx="147" cy="25" r="6.5" fill="#181820" stroke="#989AA5"/>
<rect x="187" width="165" height="50" rx="8" fill="#1F2229"/>
<rect x="187.25" y="0.25" width="164.5" height="49.5" rx="7.75" stroke="#989AA5" stroke-opacity="0.5" stroke-width="0.5"/>
<path d="M199.278 19.3636H201.409L205.114 28.4091H205.25L208.955 19.3636H211.085V31H209.415V22.5795H209.307L205.875 30.983H204.489L201.057 22.5739H200.949V31H199.278V19.3636ZM217.178 31.1761C216.359 31.1761 215.645 30.9886 215.036 30.6136C214.426 30.2386 213.952 29.714 213.615 29.0398C213.278 28.3655 213.109 27.5777 213.109 26.6761C213.109 25.7708 213.278 24.9792 213.615 24.3011C213.952 23.6231 214.426 23.0966 215.036 22.7216C215.645 22.3466 216.359 22.1591 217.178 22.1591C217.996 22.1591 218.71 22.3466 219.32 22.7216C219.929 23.0966 220.403 23.6231 220.74 24.3011C221.077 24.9792 221.246 25.7708 221.246 26.6761C221.246 27.5777 221.077 28.3655 220.74 29.0398C220.403 29.714 219.929 30.2386 219.32 30.6136C218.71 30.9886 217.996 31.1761 217.178 31.1761ZM217.183 29.75C217.714 29.75 218.153 29.6098 218.501 29.3295C218.85 29.0492 219.107 28.6761 219.274 28.2102C219.445 27.7443 219.53 27.2311 219.53 26.6705C219.53 26.1136 219.445 25.6023 219.274 25.1364C219.107 24.6667 218.85 24.2898 218.501 24.0057C218.153 23.7216 217.714 23.5795 217.183 23.5795C216.649 23.5795 216.206 23.7216 215.854 24.0057C215.505 24.2898 215.246 24.6667 215.075 25.1364C214.909 25.6023 214.825 26.1136 214.825 26.6705C214.825 27.2311 214.909 27.7443 215.075 28.2102C215.246 28.6761 215.505 29.0492 215.854 29.3295C216.206 29.6098 216.649 29.75 217.183 29.75ZM223.278 31V19.3636H224.977V23.6875H225.08C225.178 23.5057 225.32 23.2955 225.506 23.0568C225.691 22.8182 225.949 22.6098 226.278 22.4318C226.608 22.25 227.044 22.1591 227.585 22.1591C228.29 22.1591 228.919 22.3371 229.472 22.6932C230.025 23.0492 230.458 23.5625 230.773 24.233C231.091 24.9034 231.25 25.7102 231.25 26.6534C231.25 27.5966 231.093 28.4053 230.778 29.0795C230.464 29.75 230.032 30.267 229.483 30.6307C228.934 30.9905 228.307 31.1705 227.602 31.1705C227.072 31.1705 226.638 31.0814 226.301 30.9034C225.968 30.7254 225.706 30.517 225.517 30.2784C225.328 30.0398 225.182 29.8277 225.08 29.642H224.938V31H223.278ZM224.943 26.6364C224.943 27.25 225.032 27.7879 225.21 28.25C225.388 28.7121 225.646 29.0739 225.983 29.3352C226.32 29.5928 226.733 29.7216 227.222 29.7216C227.729 29.7216 228.153 29.5871 228.494 29.3182C228.835 29.0455 229.093 28.6761 229.267 28.2102C229.445 27.7443 229.534 27.2197 229.534 26.6364C229.534 26.0606 229.447 25.5436 229.273 25.0852C229.102 24.6269 228.845 24.2652 228.5 24C228.159 23.7348 227.733 23.6023 227.222 23.6023C226.729 23.6023 226.312 23.7292 225.972 23.983C225.634 24.2367 225.379 24.5909 225.205 25.0455C225.03 25.5 224.943 26.0303 224.943 26.6364ZM233.158 31V22.2727H234.857V31H233.158ZM234.016 20.9261C233.72 20.9261 233.466 20.8277 233.254 20.6307C233.046 20.4299 232.942 20.1913 232.942 19.9148C232.942 19.6345 233.046 19.3958 233.254 19.1989C233.466 18.9981 233.72 18.8977 234.016 18.8977C234.311 18.8977 234.563 18.9981 234.771 19.1989C234.983 19.3958 235.089 19.6345 235.089 19.9148C235.089 20.1913 234.983 20.4299 234.771 20.6307C234.563 20.8277 234.311 20.9261 234.016 20.9261ZM238.841 19.3636V31H237.142V19.3636H238.841ZM244.888 31.1761C244.028 31.1761 243.287 30.9924 242.666 30.625C242.049 30.2538 241.571 29.733 241.234 29.0625C240.901 28.3883 240.734 27.5985 240.734 26.6932C240.734 25.7992 240.901 25.0114 241.234 24.3295C241.571 23.6477 242.041 23.1155 242.643 22.733C243.25 22.3504 243.958 22.1591 244.768 22.1591C245.261 22.1591 245.738 22.2405 246.2 22.4034C246.662 22.5663 247.077 22.822 247.445 23.1705C247.812 23.5189 248.102 23.9716 248.314 24.5284C248.526 25.0814 248.632 25.7538 248.632 26.5455V27.1477H241.695V25.875H246.967C246.967 25.428 246.876 25.0322 246.695 24.6875C246.513 24.339 246.257 24.0644 245.928 23.8636C245.602 23.6629 245.219 23.5625 244.78 23.5625C244.303 23.5625 243.886 23.6799 243.53 23.9148C243.178 24.1458 242.905 24.4489 242.712 24.8239C242.522 25.1951 242.428 25.5985 242.428 26.0341V27.0284C242.428 27.6117 242.53 28.108 242.734 28.517C242.943 28.9261 243.232 29.2386 243.604 29.4545C243.975 29.6667 244.409 29.7727 244.905 29.7727C245.227 29.7727 245.52 29.7273 245.786 29.6364C246.051 29.5417 246.28 29.4015 246.473 29.2159C246.666 29.0303 246.814 28.8011 246.916 28.5284L248.524 28.8182C248.395 29.2917 248.164 29.7064 247.831 30.0625C247.501 30.4148 247.087 30.6894 246.587 30.8864C246.09 31.0795 245.524 31.1761 244.888 31.1761ZM255.871 31H254.007L258.195 19.3636H260.223L264.411 31H262.547L259.257 21.4773H259.166L255.871 31ZM256.183 26.4432H262.229V27.9205H256.183V26.4432ZM265.955 34.2727V22.2727H267.614V23.6875H267.756C267.854 23.5057 267.996 23.2955 268.182 23.0568C268.367 22.8182 268.625 22.6098 268.955 22.4318C269.284 22.25 269.72 22.1591 270.261 22.1591C270.966 22.1591 271.595 22.3371 272.148 22.6932C272.701 23.0492 273.134 23.5625 273.449 24.233C273.767 24.9034 273.926 25.7102 273.926 26.6534C273.926 27.5966 273.769 28.4053 273.455 29.0795C273.14 29.75 272.708 30.267 272.159 30.6307C271.61 30.9905 270.983 31.1705 270.278 31.1705C269.748 31.1705 269.314 31.0814 268.977 30.9034C268.644 30.7254 268.383 30.517 268.193 30.2784C268.004 30.0398 267.858 29.8277 267.756 29.642H267.653V34.2727H265.955ZM267.619 26.6364C267.619 27.25 267.708 27.7879 267.886 28.25C268.064 28.7121 268.322 29.0739 268.659 29.3352C268.996 29.5928 269.409 29.7216 269.898 29.7216C270.405 29.7216 270.83 29.5871 271.17 29.3182C271.511 29.0455 271.769 28.6761 271.943 28.2102C272.121 27.7443 272.21 27.2197 272.21 26.6364C272.21 26.0606 272.123 25.5436 271.949 25.0852C271.778 24.6269 271.521 24.2652 271.176 24C270.835 23.7348 270.409 23.6023 269.898 23.6023C269.405 23.6023 268.989 23.7292 268.648 23.983C268.311 24.2367 268.055 24.5909 267.881 25.0455C267.706 25.5 267.619 26.0303 267.619 26.6364ZM275.83 34.2727V22.2727H277.489V23.6875H277.631C277.729 23.5057 277.871 23.2955 278.057 23.0568C278.242 22.8182 278.5 22.6098 278.83 22.4318C279.159 22.25 279.595 22.1591 280.136 22.1591C280.841 22.1591 281.47 22.3371 282.023 22.6932C282.576 23.0492 283.009 23.5625 283.324 24.233C283.642 24.9034 283.801 25.7102 283.801 26.6534C283.801 27.5966 283.644 28.4053 283.33 29.0795C283.015 29.75 282.583 30.267 282.034 30.6307C281.485 30.9905 280.858 31.1705 280.153 31.1705C279.623 31.1705 279.189 31.0814 278.852 30.9034C278.519 30.7254 278.258 30.517 278.068 30.2784C277.879 30.0398 277.733 29.8277 277.631 29.642H277.528V34.2727H275.83ZM277.494 26.6364C277.494 27.25 277.583 27.7879 277.761 28.25C277.939 28.7121 278.197 29.0739 278.534 29.3352C278.871 29.5928 279.284 29.7216 279.773 29.7216C280.28 29.7216 280.705 29.5871 281.045 29.3182C281.386 29.0455 281.644 28.6761 281.818 28.2102C281.996 27.7443 282.085 27.2197 282.085 26.6364C282.085 26.0606 281.998 25.5436 281.824 25.0852C281.653 24.6269 281.396 24.2652 281.051 24C280.71 23.7348 280.284 23.6023 279.773 23.6023C279.28 23.6023 278.864 23.7292 278.523 23.983C278.186 24.2367 277.93 24.5909 277.756 25.0455C277.581 25.5 277.494 26.0303 277.494 26.6364Z" fill="#D9D9D9"/>
<circle cx="334" cy="26" r="6.5" fill="#181820" stroke="#989AA5"/>
<rect y="64" width="165" height="50" rx="8" fill="#1F2229"/>
<rect x="0.25" y="64.25" width="164.5" height="49.5" rx="7.75" stroke="#989AA5" stroke-opacity="0.5" stroke-width="0.5"/>
<path d="M12.2784 95V83.3636H19.5739V84.875H14.0341V88.4205H19.1932V89.9261H14.0341V93.4886H19.642V95H12.2784ZM21.7827 95V86.2727H23.4134V87.6932H23.5213C23.7031 87.2121 24.0005 86.8371 24.4134 86.5682C24.8262 86.2955 25.3205 86.1591 25.8963 86.1591C26.4796 86.1591 26.9683 86.2955 27.3622 86.5682C27.7599 86.8409 28.0535 87.2159 28.2429 87.6932H28.3338C28.5421 87.2273 28.8736 86.8561 29.3281 86.5795C29.7827 86.2992 30.3243 86.1591 30.9531 86.1591C31.7448 86.1591 32.3906 86.4072 32.8906 86.9034C33.3944 87.3996 33.6463 88.1477 33.6463 89.1477V95H31.9474V89.3068C31.9474 88.7159 31.7865 88.2879 31.4645 88.0227C31.1425 87.7576 30.758 87.625 30.3111 87.625C29.758 87.625 29.3281 87.7955 29.0213 88.1364C28.7145 88.4735 28.5611 88.9072 28.5611 89.4375V95H26.8679V89.1989C26.8679 88.7254 26.7202 88.3447 26.4247 88.0568C26.1293 87.7689 25.7448 87.625 25.2713 87.625C24.9493 87.625 24.652 87.7102 24.3793 87.8807C24.1103 88.0473 23.8925 88.2803 23.7259 88.5795C23.563 88.8788 23.4815 89.2254 23.4815 89.6193V95H21.7827ZM38.4631 95.1932C37.91 95.1932 37.41 95.0909 36.9631 94.8864C36.5161 94.678 36.1619 94.3769 35.9006 93.983C35.643 93.589 35.5142 93.1061 35.5142 92.5341C35.5142 92.0417 35.6089 91.6364 35.7983 91.3182C35.9877 91 36.2434 90.7481 36.5653 90.5625C36.8873 90.3769 37.2472 90.2367 37.6449 90.142C38.0426 90.0473 38.4479 89.9754 38.8608 89.9261C39.3835 89.8655 39.8078 89.8163 40.1335 89.7784C40.4593 89.7367 40.696 89.6705 40.8438 89.5795C40.9915 89.4886 41.0653 89.3409 41.0653 89.1364V89.0966C41.0653 88.6004 40.9252 88.2159 40.6449 87.9432C40.3684 87.6705 39.9555 87.5341 39.4062 87.5341C38.8343 87.5341 38.3835 87.661 38.054 87.9148C37.7282 88.1648 37.5028 88.4432 37.3778 88.75L35.7812 88.3864C35.9706 87.8561 36.2472 87.428 36.6108 87.1023C36.9782 86.7727 37.4006 86.5341 37.8778 86.3864C38.3551 86.2348 38.857 86.1591 39.3835 86.1591C39.732 86.1591 40.1013 86.2008 40.4915 86.2841C40.8854 86.3636 41.2528 86.5114 41.5938 86.7273C41.9384 86.9432 42.2206 87.2519 42.4403 87.6534C42.66 88.0511 42.7699 88.5682 42.7699 89.2045V95H41.1108V93.8068H41.0426C40.9328 94.0265 40.768 94.2424 40.5483 94.4545C40.3286 94.6667 40.0464 94.8428 39.7017 94.983C39.357 95.1231 38.9441 95.1932 38.4631 95.1932ZM38.8324 93.8295C39.3021 93.8295 39.7036 93.7367 40.0369 93.5511C40.3741 93.3655 40.6297 93.1231 40.804 92.8239C40.982 92.5208 41.071 92.197 41.071 91.8523V90.7273C41.0104 90.7879 40.893 90.8447 40.7188 90.8977C40.5483 90.947 40.3532 90.9905 40.1335 91.0284C39.9138 91.0625 39.6998 91.0947 39.4915 91.125C39.2831 91.1515 39.1089 91.1742 38.9688 91.1932C38.6392 91.2348 38.3381 91.3049 38.0653 91.4034C37.7964 91.5019 37.5805 91.6439 37.4176 91.8295C37.2585 92.0114 37.179 92.2538 37.179 92.5568C37.179 92.9773 37.3343 93.2955 37.6449 93.5114C37.9555 93.7235 38.3513 93.8295 38.8324 93.8295ZM45.0327 95V86.2727H46.7315V95H45.0327ZM45.8906 84.9261C45.5952 84.9261 45.3414 84.8277 45.1293 84.6307C44.9209 84.4299 44.8168 84.1913 44.8168 83.9148C44.8168 83.6345 44.9209 83.3958 45.1293 83.1989C45.3414 82.9981 45.5952 82.8977 45.8906 82.8977C46.1861 82.8977 46.438 82.9981 46.6463 83.1989C46.8584 83.3958 46.9645 83.6345 46.9645 83.9148C46.9645 84.1913 46.8584 84.4299 46.6463 84.6307C46.438 84.8277 46.1861 84.9261 45.8906 84.9261ZM50.7159 83.3636V95H49.017V83.3636H50.7159Z" fill="#D9D9D9"/>
<circle cx="147" cy="90" r="6.5" fill="#F7551D" stroke="#F7551D"/>
<path d="M146.329 90.2713L144.443 88.386L143.5 89.3287L146.329 92.1573L151.042 87.4433L150.1 86.5L146.329 90.2713Z" fill="white"/>
<rect x="187" y="64" width="165" height="50" rx="8" fill="#1F2229"/>
<rect x="187.25" y="64.25" width="164.5" height="49.5" rx="7.75" stroke="#989AA5" stroke-opacity="0.5" stroke-width="0.5"/>
<path d="M205.625 86.4205C205.564 85.8826 205.314 85.4659 204.875 85.1705C204.436 84.8712 203.883 84.7216 203.216 84.7216C202.739 84.7216 202.326 84.7973 201.977 84.9489C201.629 85.0966 201.358 85.3011 201.165 85.5625C200.975 85.8201 200.881 86.1136 200.881 86.4432C200.881 86.7197 200.945 86.9583 201.074 87.1591C201.206 87.3598 201.379 87.5284 201.591 87.6648C201.807 87.7973 202.038 87.9091 202.284 88C202.53 88.0871 202.767 88.1591 202.994 88.2159L204.131 88.5114C204.502 88.6023 204.883 88.7254 205.273 88.8807C205.663 89.036 206.025 89.2405 206.358 89.4943C206.691 89.7481 206.96 90.0625 207.165 90.4375C207.373 90.8125 207.477 91.2614 207.477 91.7841C207.477 92.4432 207.307 93.0284 206.966 93.5398C206.629 94.0511 206.138 94.4545 205.494 94.75C204.854 95.0455 204.08 95.1932 203.17 95.1932C202.299 95.1932 201.545 95.0549 200.909 94.7784C200.273 94.5019 199.775 94.1098 199.415 93.6023C199.055 93.0909 198.856 92.4848 198.818 91.7841H200.58C200.614 92.2045 200.75 92.5549 200.989 92.8352C201.231 93.1117 201.54 93.3182 201.915 93.4545C202.294 93.5871 202.708 93.6534 203.159 93.6534C203.655 93.6534 204.097 93.5758 204.483 93.4205C204.873 93.2614 205.18 93.0417 205.403 92.7614C205.627 92.4773 205.739 92.1458 205.739 91.767C205.739 91.4223 205.64 91.1402 205.443 90.9205C205.25 90.7008 204.987 90.5189 204.653 90.375C204.324 90.2311 203.951 90.1042 203.534 89.9943L202.159 89.6193C201.227 89.3655 200.489 88.9924 199.943 88.5C199.402 88.0076 199.131 87.3561 199.131 86.5455C199.131 85.875 199.313 85.2898 199.676 84.7898C200.04 84.2898 200.532 83.9015 201.153 83.625C201.775 83.3447 202.475 83.2045 203.256 83.2045C204.044 83.2045 204.739 83.3428 205.341 83.6193C205.947 83.8958 206.424 84.2765 206.773 84.7614C207.121 85.2424 207.303 85.7955 207.318 86.4205H205.625ZM209.575 83.3636H211.706L215.411 92.4091H215.547L219.251 83.3636H221.382V95H219.712V86.5795H219.604L216.172 94.983H214.786L211.354 86.5739H211.246V95H209.575V83.3636ZM230.281 86.4205C230.221 85.8826 229.971 85.4659 229.531 85.1705C229.092 84.8712 228.539 84.7216 227.872 84.7216C227.395 84.7216 226.982 84.7973 226.634 84.9489C226.285 85.0966 226.014 85.3011 225.821 85.5625C225.632 85.8201 225.537 86.1136 225.537 86.4432C225.537 86.7197 225.601 86.9583 225.73 87.1591C225.863 87.3598 226.035 87.5284 226.247 87.6648C226.463 87.7973 226.694 87.9091 226.94 88C227.187 88.0871 227.423 88.1591 227.651 88.2159L228.787 88.5114C229.158 88.6023 229.539 88.7254 229.929 88.8807C230.319 89.036 230.681 89.2405 231.014 89.4943C231.348 89.7481 231.616 90.0625 231.821 90.4375C232.029 90.8125 232.134 91.2614 232.134 91.7841C232.134 92.4432 231.963 93.0284 231.622 93.5398C231.285 94.0511 230.795 94.4545 230.151 94.75C229.51 95.0455 228.736 95.1932 227.827 95.1932C226.955 95.1932 226.202 95.0549 225.565 94.7784C224.929 94.5019 224.431 94.1098 224.071 93.6023C223.711 93.0909 223.512 92.4848 223.474 91.7841H225.236C225.27 92.2045 225.406 92.5549 225.645 92.8352C225.887 93.1117 226.196 93.3182 226.571 93.4545C226.95 93.5871 227.365 93.6534 227.815 93.6534C228.312 93.6534 228.753 93.5758 229.139 93.4205C229.529 93.2614 229.836 93.0417 230.06 92.7614C230.283 92.4773 230.395 92.1458 230.395 91.767C230.395 91.4223 230.296 91.1402 230.099 90.9205C229.906 90.7008 229.643 90.5189 229.31 90.375C228.98 90.2311 228.607 90.1042 228.19 89.9943L226.815 89.6193C225.884 89.3655 225.145 88.9924 224.599 88.5C224.058 88.0076 223.787 87.3561 223.787 86.5455C223.787 85.875 223.969 85.2898 224.332 84.7898C224.696 84.2898 225.188 83.9015 225.81 83.625C226.431 83.3447 227.132 83.2045 227.912 83.2045C228.7 83.2045 229.395 83.3428 229.997 83.6193C230.603 83.8958 231.08 84.2765 231.429 84.7614C231.777 85.2424 231.959 85.7955 231.974 86.4205H230.281Z" fill="#D9D9D9"/>
<circle cx="334" cy="90" r="6.5" fill="#181820" stroke="#989AA5"/>
</svg>
