<svg width="40" height="45" viewBox="0 0 40 45" fill="none" xmlns="http://www.w3.org/2000/svg">
<rect width="40" height="45" rx="8" fill="#1F2229"/>
<rect x="0.25" y="0.25" width="39.5" height="44.5" rx="7.75" stroke="#989AA5" stroke-opacity="0.5" stroke-width="0.5"/>
<path d="M30.125 18.875H9.875C9.57663 18.875 9.29048 18.7565 9.0795 18.5455C8.86853 18.3345 8.75 18.0484 8.75 17.75C8.75 17.4516 8.86853 17.1655 9.0795 16.9545C9.29048 16.7435 9.57663 16.625 9.875 16.625H30.125C30.4234 16.625 30.7095 16.7435 30.9205 16.9545C31.1315 17.1655 31.25 17.4516 31.25 17.75C31.25 18.0484 31.1315 18.3345 30.9205 18.5455C30.7095 18.7565 30.4234 18.875 30.125 18.875ZM26.375 24.125H13.625C13.3266 24.125 13.0405 24.0065 12.8295 23.7955C12.6185 23.5845 12.5 23.2984 12.5 23C12.5 22.7016 12.6185 22.4155 12.8295 22.2045C13.0405 21.9935 13.3266 21.875 13.625 21.875H26.375C26.6734 21.875 26.9595 21.9935 27.1705 22.2045C27.3815 22.4155 27.5 22.7016 27.5 23C27.5 23.2984 27.3815 23.5845 27.1705 23.7955C26.9595 24.0065 26.6734 24.125 26.375 24.125ZM21.875 29.375H18.125C17.8266 29.375 17.5405 29.2565 17.3295 29.0455C17.1185 28.8345 17 28.5484 17 28.25C17 27.9516 17.1185 27.6655 17.3295 27.4545C17.5405 27.2435 17.8266 27.125 18.125 27.125H21.875C22.1734 27.125 22.4595 27.2435 22.6705 27.4545C22.8815 27.6655 23 27.9516 23 28.25C23 28.5484 22.8815 28.8345 22.6705 29.0455C22.4595 29.2565 22.1734 29.375 21.875 29.375Z" fill="white"/>
</svg>
