<svg width="76" height="76" viewBox="0 0 76 76" fill="none" xmlns="http://www.w3.org/2000/svg">
<circle cx="38" cy="38" r="38" fill="#1C232C"/>
<circle cx="38" cy="38" r="27.875" fill="#1C232C" stroke="#F7551D" stroke-width="0.25"/>
<circle cx="38" cy="38" r="17.875" fill="#1C232C" stroke="#F7551D" stroke-width="0.25"/>
<circle cx="38" cy="38" r="10" fill="#FB5419"/>
<path fill-rule="evenodd" clip-rule="evenodd" d="M37.3338 31.9538C37.279 31.8964 37.2114 31.8529 37.1364 31.8268C37.0614 31.8008 36.9814 31.7929 36.9028 31.804C36.8242 31.815 36.7494 31.8446 36.6845 31.8902C36.6196 31.9359 36.5665 31.9964 36.5296 32.0666C36.041 33.0009 35.3095 33.786 34.4121 34.3393C33.5147 34.8926 32.4846 35.1936 31.4305 35.2105C31.3589 35.2117 31.2884 35.2283 31.2238 35.2591C31.1593 35.2899 31.102 35.3343 31.056 35.3891C31.0101 35.4439 30.9764 35.508 30.9573 35.577C30.9382 35.646 30.9341 35.7182 30.9454 35.7889L31.3826 38.5353C31.6546 40.2189 32.4267 41.7817 33.5985 43.0206C34.7704 44.2596 36.2878 45.1174 37.9536 45.4826L38.5734 45.6168L38.5798 45.6188C38.9213 45.6885 39.2763 45.6319 39.5793 45.4597L39.5849 45.4568L40.1314 45.1369C41.6016 44.2726 42.7777 42.985 43.5071 41.4433C44.2364 39.9017 44.4852 38.1763 44.2209 36.4914L43.7837 33.745C43.7729 33.6773 43.7484 33.6125 43.7115 33.5547C43.6747 33.4969 43.6264 33.4473 43.5696 33.409C43.5128 33.3706 43.4487 33.3444 43.3813 33.3319C43.3139 33.3193 43.2447 33.3208 43.1779 33.3361C40.6875 33.9058 38.7047 33.3962 37.3338 31.9538Z" fill="#17242E"/>
</svg>
