<svg width="50" height="50" viewBox="0 0 50 50" fill="none" xmlns="http://www.w3.org/2000/svg">
<circle cx="25" cy="25" r="25" fill="#F7551D"/>
<g clip-path="url(#clip0_225_616)">
<path fill-rule="evenodd" clip-rule="evenodd" d="M21.2085 16C21.4192 16.0001 21.6253 16.0569 21.8015 16.1635C21.9778 16.27 22.1166 16.4217 22.2008 16.6L24.7618 22H28.2502V17C28.2502 16.7348 28.3643 16.4804 28.5675 16.2929C28.7706 16.1054 29.0462 16 29.3335 16C29.6208 16 29.8964 16.1054 30.0995 16.2929C30.3027 16.4804 30.4168 16.7348 30.4168 17V22H32.5835C32.8708 22 33.1464 22.1054 33.3495 22.2929C33.5527 22.4804 33.6668 22.7348 33.6668 23C33.6668 23.2652 33.5527 23.5196 33.3495 23.7071C33.1464 23.8946 32.8708 24 32.5835 24H30.4168V26H32.5835C32.8708 26 33.1464 26.1054 33.3495 26.2929C33.5527 26.4804 33.6668 26.7348 33.6668 27C33.6668 27.2652 33.5527 27.5196 33.3495 27.7071C33.1464 27.8946 32.8708 28 32.5835 28H30.4168V33C30.4168 33.2652 30.3027 33.5196 30.0995 33.7071C29.8964 33.8946 29.6208 34 29.3335 34H28.7918C28.5811 33.9999 28.375 33.9431 28.1988 33.8365C28.0225 33.73 27.8838 33.5783 27.7995 33.4L25.2385 28H21.7502V33C21.7502 33.2652 21.636 33.5196 21.4329 33.7071C21.2297 33.8946 20.9541 34 20.6668 34C20.3795 34 20.104 33.8946 19.9008 33.7071C19.6976 33.5196 19.5835 33.2652 19.5835 33V28H17.4168C17.1295 28 16.854 27.8946 16.6508 27.7071C16.4476 27.5196 16.3335 27.2652 16.3335 27C16.3335 26.7348 16.4476 26.4804 16.6508 26.2929C16.854 26.1054 17.1295 26 17.4168 26H19.5835V24H17.4168C17.1295 24 16.854 23.8946 16.6508 23.7071C16.4476 23.5196 16.3335 23.2652 16.3335 23C16.3335 22.7348 16.4476 22.4804 16.6508 22.2929C16.854 22.1054 17.1295 22 17.4168 22H19.5835V17C19.5835 16.7348 19.6976 16.4804 19.9008 16.2929C20.104 16.1054 20.3795 16 20.6668 16H21.2085ZM28.2502 28H27.6045L28.2502 29.362V28ZM23.3437 24H21.7502V26H24.2917L23.3437 24ZM28.2502 24H25.7087L26.6566 26H28.2502V24ZM21.7502 20.638V22H22.3958L21.7502 20.638Z" fill="white"/>
</g>
<defs>
<clipPath id="clip0_225_616">
<rect width="26" height="24" fill="white" transform="translate(12 13)"/>
</clipPath>
</defs>
</svg>
