<svg width="47" height="10" viewBox="0 0 47 10" fill="none" xmlns="http://www.w3.org/2000/svg">
<path d="M0.799006 7.5V0.227273H3.39134C3.95715 0.227273 4.4259 0.330255 4.79759 0.536221C5.16927 0.742187 5.44744 1.02391 5.6321 1.38139C5.81676 1.73651 5.90909 2.1366 5.90909 2.58168C5.90909 3.02912 5.81558 3.43158 5.62855 3.78906C5.44389 4.14418 5.16454 4.4259 4.79048 4.63423C4.4188 4.8402 3.95123 4.94318 3.38778 4.94318H1.60511V4.01278H3.28835C3.64583 4.01278 3.93584 3.95123 4.15838 3.82812C4.38092 3.70265 4.54427 3.5322 4.64844 3.31676C4.7526 3.10133 4.80469 2.8563 4.80469 2.58168C4.80469 2.30705 4.7526 2.06321 4.64844 1.85014C4.54427 1.63707 4.37973 1.47017 4.15483 1.34943C3.93229 1.22869 3.63873 1.16832 3.27415 1.16832H1.89631V7.5H0.799006ZM8.64879 7.62074C8.30315 7.62074 7.99065 7.55682 7.71129 7.42898C7.43194 7.29877 7.21058 7.11056 7.04723 6.86435C6.88625 6.61813 6.80575 6.31629 6.80575 5.95881C6.80575 5.65104 6.86494 5.39773 6.98331 5.19886C7.10168 5 7.26148 4.84257 7.46271 4.72656C7.66394 4.61056 7.88885 4.52296 8.13743 4.46378C8.38601 4.40459 8.63932 4.35961 8.89737 4.32884C9.22408 4.29096 9.48923 4.26018 9.69283 4.23651C9.89643 4.21046 10.0444 4.16903 10.1367 4.11222C10.229 4.0554 10.2752 3.96307 10.2752 3.83523V3.81037C10.2752 3.50024 10.1876 3.25994 10.0124 3.08949C9.83961 2.91903 9.58156 2.83381 9.23828 2.83381C8.8808 2.83381 8.59908 2.91312 8.39311 3.07173C8.18951 3.22798 8.04865 3.40199 7.97053 3.59375L6.97266 3.36648C7.09103 3.03504 7.26385 2.76752 7.49112 2.56392C7.72076 2.35795 7.98473 2.20881 8.28303 2.11648C8.58132 2.02178 8.895 1.97443 9.22408 1.97443C9.44188 1.97443 9.6727 2.00047 9.91655 2.05256C10.1628 2.10227 10.3924 2.1946 10.6055 2.32955C10.8209 2.46449 10.9973 2.65743 11.1346 2.90838C11.2719 3.15696 11.3406 3.48011 11.3406 3.87784V7.5H10.3036V6.75426H10.261C10.1924 6.89157 10.0894 7.02652 9.95206 7.15909C9.81475 7.29167 9.63838 7.40175 9.42294 7.48935C9.2075 7.57694 8.94946 7.62074 8.64879 7.62074ZM8.87962 6.76847C9.17318 6.76847 9.42412 6.71046 9.63246 6.59446C9.84316 6.47846 10.003 6.32694 10.1119 6.13991C10.2231 5.95052 10.2788 5.74811 10.2788 5.53267V4.82955C10.2409 4.86742 10.1675 4.90294 10.0586 4.93608C9.95206 4.96686 9.83014 4.99408 9.69283 5.01776C9.55552 5.03906 9.42176 5.05919 9.29155 5.07812C9.16134 5.0947 9.05244 5.1089 8.96484 5.12074C8.75888 5.14678 8.57067 5.19058 8.40021 5.25213C8.23213 5.31368 8.09718 5.40246 7.99538 5.51847C7.89595 5.6321 7.84624 5.78362 7.84624 5.97301C7.84624 6.2358 7.9433 6.43466 8.13743 6.5696C8.33156 6.70218 8.57895 6.76847 8.87962 6.76847ZM13.2306 9.54545C13.072 9.54545 12.9276 9.53243 12.7974 9.50639C12.6672 9.48272 12.5701 9.45668 12.5062 9.42827L12.7619 8.55824C12.956 8.61032 13.1288 8.63281 13.2804 8.62571C13.4319 8.61861 13.5656 8.56179 13.6816 8.45526C13.8 8.34872 13.9042 8.17472 13.9941 7.93324L14.1255 7.57102L12.1298 2.04545H13.2662L14.6475 6.27841H14.7044L16.0858 2.04545H17.2257L14.9778 8.22798C14.8736 8.51207 14.7411 8.75237 14.5801 8.94886C14.4191 9.14773 14.2273 9.29688 14.0048 9.39631C13.7823 9.49574 13.5242 9.54545 13.2306 9.54545ZM18.2235 7.5V2.04545H19.2427V2.93324H19.3102C19.4238 2.63258 19.6097 2.3982 19.8677 2.23011C20.1258 2.05966 20.4347 1.97443 20.7946 1.97443C21.1592 1.97443 21.4645 2.05966 21.7108 2.23011C21.9593 2.40057 22.1428 2.63494 22.2612 2.93324H22.318C22.4482 2.64205 22.6554 2.41004 22.9395 2.23722C23.2235 2.06203 23.5621 1.97443 23.9551 1.97443C24.4499 1.97443 24.8535 2.1295 25.166 2.43963C25.4809 2.74976 25.6383 3.21733 25.6383 3.84233V7.5H24.5765V3.94176C24.5765 3.57244 24.4759 3.30492 24.2747 3.1392C24.0734 2.97348 23.8332 2.89062 23.5538 2.89062C23.2082 2.89062 22.9395 2.99716 22.7477 3.21023C22.5559 3.42093 22.46 3.692 22.46 4.02344V7.5H21.4018V3.87429C21.4018 3.57836 21.3095 3.34044 21.1248 3.16051C20.9402 2.98059 20.6999 2.89062 20.4039 2.89062C20.2027 2.89062 20.0169 2.94389 19.8464 3.05043C19.6783 3.15459 19.5422 3.30019 19.438 3.48722C19.3362 3.67424 19.2853 3.89086 19.2853 4.13707V7.5H18.2235ZM29.4123 7.61009C28.8749 7.61009 28.4121 7.49527 28.0238 7.26562C27.6379 7.03362 27.3396 6.7081 27.1289 6.28906C26.9206 5.86766 26.8164 5.37405 26.8164 4.80824C26.8164 4.24953 26.9206 3.7571 27.1289 3.33097C27.3396 2.90483 27.6332 2.57221 28.0096 2.3331C28.3884 2.09399 28.8311 1.97443 29.3377 1.97443C29.6455 1.97443 29.9438 2.02533 30.2326 2.12713C30.5214 2.22893 30.7807 2.38873 31.0103 2.60653C31.2399 2.82434 31.421 3.10724 31.5536 3.45526C31.6862 3.8009 31.7525 4.22112 31.7525 4.71591V5.09233H27.4165V4.29688H30.712C30.712 4.01752 30.6552 3.77012 30.5415 3.55469C30.4279 3.33688 30.2681 3.16525 30.0621 3.03977C29.8585 2.9143 29.6194 2.85156 29.3448 2.85156C29.0465 2.85156 28.7861 2.92495 28.5636 3.07173C28.3434 3.21615 28.1729 3.40554 28.0522 3.63991C27.9338 3.87192 27.8746 4.12405 27.8746 4.39631V5.01776C27.8746 5.38234 27.9386 5.69247 28.0664 5.94815C28.1966 6.20384 28.3777 6.39915 28.6097 6.53409C28.8417 6.66667 29.1128 6.73295 29.4229 6.73295C29.6242 6.73295 29.8076 6.70455 29.9734 6.64773C30.1391 6.58854 30.2823 6.50095 30.4031 6.38494C30.5238 6.26894 30.6161 6.12571 30.68 5.95526L31.685 6.13636C31.6045 6.43229 31.4601 6.69152 31.2518 6.91406C31.0458 7.13423 30.7866 7.30587 30.4741 7.42898C30.1639 7.54972 29.81 7.61009 29.4123 7.61009ZM33.9924 4.26136V7.5H32.9306V2.04545H33.9498V2.93324H34.0172C34.1427 2.64441 34.3392 2.41241 34.6067 2.23722C34.8766 2.06203 35.2163 1.97443 35.6259 1.97443C35.9976 1.97443 36.3231 2.05256 36.6025 2.20881C36.8818 2.36269 37.0984 2.59233 37.2523 2.89773C37.4062 3.20312 37.4831 3.58073 37.4831 4.03054V7.5H36.4213V4.15838C36.4213 3.76302 36.3184 3.45407 36.1124 3.23153C35.9064 3.00663 35.6235 2.89418 35.2637 2.89418C35.0175 2.89418 34.7985 2.94744 34.6067 3.05398C34.4173 3.16051 34.267 3.31676 34.1557 3.52273C34.0468 3.72633 33.9924 3.97254 33.9924 4.26136ZM41.4533 2.04545V2.89773H38.4739V2.04545H41.4533ZM39.2729 0.738636H40.3347V5.89844C40.3347 6.1044 40.3655 6.25947 40.427 6.36364C40.4886 6.46544 40.5679 6.53527 40.665 6.57315C40.7644 6.60866 40.8721 6.62642 40.9881 6.62642C41.0733 6.62642 41.1479 6.6205 41.2118 6.60866C41.2757 6.59683 41.3255 6.58736 41.361 6.58026L41.5527 7.45739C41.4912 7.48106 41.4036 7.50473 41.29 7.52841C41.1763 7.55445 41.0343 7.56866 40.8638 7.57102C40.5845 7.57576 40.324 7.52604 40.0826 7.42188C39.8411 7.31771 39.6458 7.15672 39.4966 6.93892C39.3475 6.72112 39.2729 6.44768 39.2729 6.11861V0.738636ZM46.6273 3.37713L45.665 3.54759C45.6247 3.42448 45.5608 3.30729 45.4732 3.19602C45.388 3.08475 45.272 2.99361 45.1252 2.92259C44.9784 2.85156 44.7949 2.81605 44.5748 2.81605C44.2741 2.81605 44.0231 2.88352 43.8219 3.01847C43.6207 3.15104 43.5201 3.32268 43.5201 3.53338C43.5201 3.71567 43.5875 3.86245 43.7225 3.97372C43.8574 4.08499 44.0752 4.17614 44.3759 4.24716L45.2424 4.44602C45.7443 4.56203 46.1183 4.74077 46.3645 4.98224C46.6107 5.22372 46.7338 5.53741 46.7338 5.9233C46.7338 6.25 46.6391 6.54119 46.4498 6.79688C46.2627 7.05019 46.0011 7.24905 45.665 7.39347C45.3311 7.53788 44.9441 7.61009 44.5037 7.61009C43.8929 7.61009 43.3946 7.47988 43.0087 7.21946C42.6228 6.95668 42.3861 6.58381 42.2985 6.10085L43.3248 5.9446C43.3887 6.21212 43.5201 6.41454 43.7189 6.55185C43.9178 6.68679 44.177 6.75426 44.4966 6.75426C44.8446 6.75426 45.1228 6.68205 45.3311 6.53764C45.5395 6.39086 45.6436 6.21212 45.6436 6.00142C45.6436 5.83097 45.5797 5.68774 45.4519 5.57173C45.3264 5.45573 45.1335 5.36813 44.873 5.30895L43.9498 5.10653C43.4408 4.99053 43.0643 4.80587 42.8205 4.55256C42.579 4.29924 42.4583 3.97846 42.4583 3.5902C42.4583 3.26823 42.5482 2.98651 42.7282 2.74503C42.9081 2.50355 43.1567 2.31534 43.4739 2.1804C43.7911 2.04309 44.1545 1.97443 44.5641 1.97443C45.1536 1.97443 45.6176 2.10227 45.9561 2.35795C46.2947 2.61127 46.5184 2.95099 46.6273 3.37713Z" fill="#989AA5"/>
</svg>
