<svg width="326" height="48" viewBox="0 0 326 48" fill="none" xmlns="http://www.w3.org/2000/svg">
<circle cx="24" cy="24" r="24" fill="#1F2229"/>
<circle cx="24" cy="24" r="23.75" stroke="#9C9CA6" stroke-opacity="0.5" stroke-width="0.5"/>
<circle cx="23.75" cy="23.75" r="9.75" fill="#F7551D"/>
<path fill-rule="evenodd" clip-rule="evenodd" d="M20.2222 28.7778L19 27.5556L22.6667 23.8889L19 20.2223L20.2222 19.0001L25.1111 23.8889L20.2222 28.7778Z" fill="#1B1E27"/>
<path fill-rule="evenodd" clip-rule="evenodd" d="M24.1111 28.7778L22.8889 27.5556L26.5556 23.8889L22.8889 20.2223L24.1111 19.0001L29 23.8889L24.1111 28.7778Z" fill="#1B1E27"/>
<path d="M64.9787 19H63.348L67.0121 8.81818H68.7869L72.451 19H70.8203L67.9418 10.6676H67.8622L64.9787 19ZM65.2521 15.0128H70.5419V16.3054H65.2521V15.0128ZM75.2885 14.4659V19H73.802V11.3636H75.2289V12.6065H75.3233C75.499 12.2022 75.7741 11.8774 76.1486 11.6321C76.5265 11.3868 77.0021 11.2642 77.5755 11.2642C78.0958 11.2642 78.5516 11.3736 78.9426 11.5923C79.3337 11.8078 79.637 12.1293 79.8525 12.5568C80.0679 12.9844 80.1756 13.513 80.1756 14.1428V19H78.6891V14.3217C78.6891 13.7682 78.5449 13.3357 78.2566 13.0241C77.9682 12.7093 77.5721 12.5518 77.0684 12.5518C76.7237 12.5518 76.4171 12.6264 76.1486 12.7756C75.8835 12.9247 75.673 13.1435 75.5172 13.4318C75.3648 13.7169 75.2885 14.0616 75.2885 14.4659ZM85.0279 19.1491C84.4114 19.1491 83.8612 18.9917 83.3773 18.6768C82.8967 18.3587 82.5189 17.9062 82.2438 17.3196C81.972 16.7296 81.8361 16.022 81.8361 15.1967C81.8361 14.3714 81.9737 13.6655 82.2488 13.0788C82.5272 12.4922 82.9083 12.0431 83.3922 11.7315C83.8761 11.42 84.4247 11.2642 85.0378 11.2642C85.5118 11.2642 85.8929 11.3438 86.1813 11.5028C86.473 11.6586 86.6983 11.8409 86.8574 12.0497C87.0198 12.2585 87.1458 12.4425 87.2353 12.6016H87.3248V8.81818H88.8113V19H87.3596V17.8118H87.2353C87.1458 17.9742 87.0165 18.1598 86.8475 18.3686C86.6818 18.5774 86.4531 18.7597 86.1614 18.9155C85.8697 19.0713 85.4919 19.1491 85.0279 19.1491ZM85.356 17.8814C85.7836 17.8814 86.1448 17.7687 86.4398 17.5433C86.7381 17.3146 86.9635 16.9981 87.1159 16.5938C87.2717 16.1894 87.3496 15.7187 87.3496 15.1818C87.3496 14.6515 87.2734 14.1875 87.1209 13.7898C86.9685 13.392 86.7447 13.0821 86.4498 12.8601C86.1548 12.638 85.7902 12.527 85.356 12.527C84.9086 12.527 84.5357 12.643 84.2374 12.875C83.9391 13.107 83.7137 13.4235 83.5613 13.8246C83.4121 14.2256 83.3375 14.678 83.3375 15.1818C83.3375 15.6922 83.4138 16.1513 83.5662 16.5589C83.7187 16.9666 83.9441 17.2898 84.2424 17.5284C84.544 17.7637 84.9152 17.8814 85.356 17.8814ZM90.9329 19V11.3636H92.3697V12.5767H92.4492C92.5884 12.1657 92.8337 11.8426 93.185 11.6072C93.5397 11.3686 93.9407 11.2493 94.3881 11.2493C94.4809 11.2493 94.5903 11.2526 94.7163 11.2592C94.8455 11.2659 94.9466 11.2741 95.0195 11.2841V12.706C94.9599 12.6894 94.8538 12.6712 94.7013 12.6513C94.5489 12.6281 94.3964 12.6165 94.244 12.6165C93.8926 12.6165 93.5794 12.6911 93.3043 12.8402C93.0326 12.986 92.8171 13.1899 92.658 13.4517C92.4989 13.7102 92.4194 14.0052 92.4194 14.3366V19H90.9329ZM99.3237 19.1541C98.5713 19.1541 97.9234 18.9934 97.3798 18.6719C96.8395 18.3471 96.4219 17.8913 96.127 17.3047C95.8353 16.7147 95.6895 16.0237 95.6895 15.2315C95.6895 14.4493 95.8353 13.7599 96.127 13.1634C96.4219 12.5668 96.8329 12.1011 97.3599 11.7663C97.8902 11.4316 98.51 11.2642 99.2193 11.2642C99.6502 11.2642 100.068 11.3355 100.472 11.478C100.876 11.6205 101.239 11.8442 101.561 12.1491C101.882 12.4541 102.136 12.8501 102.322 13.3374C102.507 13.8213 102.6 14.4096 102.6 15.1023V15.6293H96.5297V14.5156H101.143C101.143 14.1245 101.064 13.7782 100.905 13.4766C100.746 13.1716 100.522 12.9313 100.233 12.7557C99.9484 12.58 99.6137 12.4922 99.2292 12.4922C98.8116 12.4922 98.447 12.5949 98.1355 12.8004C97.8272 13.0026 97.5886 13.2678 97.4196 13.5959C97.2538 13.9207 97.171 14.2737 97.171 14.6548V15.5249C97.171 16.0353 97.2605 16.4695 97.4395 16.8274C97.6217 17.1854 97.8753 17.4588 98.2001 17.6477C98.5249 17.8333 98.9044 17.9261 99.3386 17.9261C99.6203 17.9261 99.8772 17.8864 100.109 17.8068C100.341 17.724 100.542 17.6013 100.711 17.4389C100.88 17.2765 101.009 17.076 101.099 16.8374L102.506 17.0909C102.393 17.5052 102.191 17.8681 101.899 18.1797C101.611 18.4879 101.248 18.7282 100.81 18.9006C100.376 19.0696 99.8805 19.1541 99.3237 19.1541ZM105.891 19L103.644 11.3636H105.18L106.677 16.9716H106.751L108.253 11.3636H109.789L111.28 16.9467H111.355L112.841 11.3636H114.378L112.135 19H110.619L109.068 13.4865H108.954L107.403 19H105.891ZM120.473 19H118.842L122.506 8.81818H124.281L127.945 19H126.314L123.436 10.6676H123.356L120.473 19ZM120.746 15.0128H126.036V16.3054H120.746V15.0128ZM129.365 19V11.3636H130.851V19H129.365ZM130.115 10.1854C129.857 10.1854 129.635 10.0992 129.449 9.92685C129.267 9.75118 129.176 9.54238 129.176 9.30043C129.176 9.05516 129.267 8.84635 129.449 8.67401C129.635 8.49834 129.857 8.41051 130.115 8.41051C130.374 8.41051 130.594 8.49834 130.776 8.67401C130.962 8.84635 131.055 9.05516 131.055 9.30043C131.055 9.54238 130.962 9.75118 130.776 9.92685C130.594 10.0992 130.374 10.1854 130.115 10.1854ZM132.851 19V11.3636H134.288V12.5767H134.367C134.506 12.1657 134.752 11.8426 135.103 11.6072C135.458 11.3686 135.859 11.2493 136.306 11.2493C136.399 11.2493 136.508 11.2526 136.634 11.2592C136.763 11.2659 136.865 11.2741 136.938 11.2841V12.706C136.878 12.6894 136.772 12.6712 136.619 12.6513C136.467 12.6281 136.314 12.6165 136.162 12.6165C135.811 12.6165 135.497 12.6911 135.222 12.8402C134.951 12.986 134.735 13.1899 134.576 13.4517C134.417 13.7102 134.337 14.0052 134.337 14.3366V19H132.851ZM140.378 19.169C139.894 19.169 139.456 19.0795 139.065 18.9006C138.674 18.7183 138.364 18.4548 138.136 18.1101C137.91 17.7654 137.798 17.3428 137.798 16.8423C137.798 16.4115 137.88 16.0568 138.046 15.7784C138.212 15.5 138.436 15.2796 138.717 15.1172C138.999 14.9548 139.314 14.8321 139.662 14.7493C140.01 14.6664 140.365 14.6035 140.726 14.5604C141.183 14.5073 141.554 14.4643 141.839 14.4311C142.125 14.3946 142.332 14.3366 142.461 14.2571C142.59 14.1776 142.655 14.0483 142.655 13.8693V13.8345C142.655 13.4003 142.532 13.0639 142.287 12.8253C142.045 12.5866 141.684 12.4673 141.203 12.4673C140.703 12.4673 140.308 12.5784 140.02 12.8004C139.735 13.0192 139.538 13.2628 139.428 13.5312L138.031 13.2131C138.197 12.7491 138.439 12.3745 138.757 12.0895C139.079 11.8011 139.448 11.5923 139.866 11.4631C140.283 11.3305 140.723 11.2642 141.183 11.2642C141.488 11.2642 141.811 11.3007 142.153 11.3736C142.497 11.4432 142.819 11.5724 143.117 11.7614C143.419 11.9503 143.666 12.2204 143.858 12.5717C144.05 12.9197 144.146 13.3722 144.146 13.929V19H142.695V17.956H142.635C142.539 18.1482 142.395 18.3371 142.202 18.5227C142.01 18.7083 141.763 18.8625 141.462 18.9851C141.16 19.1077 140.799 19.169 140.378 19.169ZM140.701 17.9759C141.112 17.9759 141.463 17.8946 141.755 17.7322C142.05 17.5698 142.274 17.3577 142.426 17.0959C142.582 16.8307 142.66 16.5473 142.66 16.2457V15.2614C142.607 15.3144 142.504 15.3641 142.352 15.4105C142.202 15.4536 142.032 15.4917 141.839 15.5249C141.647 15.5547 141.46 15.5829 141.278 15.6094C141.095 15.6326 140.943 15.6525 140.82 15.669C140.532 15.7055 140.268 15.7668 140.03 15.853C139.795 15.9392 139.606 16.0634 139.463 16.2259C139.324 16.3849 139.254 16.5971 139.254 16.8622C139.254 17.2301 139.39 17.5085 139.662 17.6974C139.934 17.883 140.28 17.9759 140.701 17.9759ZM149.343 19.1541C148.627 19.1541 148.002 18.9901 147.469 18.6619C146.935 18.3338 146.521 17.8748 146.226 17.2848C145.931 16.6948 145.783 16.0054 145.783 15.2166C145.783 14.4245 145.931 13.7318 146.226 13.1385C146.521 12.5452 146.935 12.0845 147.469 11.7564C148.002 11.4283 148.627 11.2642 149.343 11.2642C150.059 11.2642 150.684 11.4283 151.217 11.7564C151.751 12.0845 152.165 12.5452 152.46 13.1385C152.755 13.7318 152.903 14.4245 152.903 15.2166C152.903 16.0054 152.755 16.6948 152.46 17.2848C152.165 17.8748 151.751 18.3338 151.217 18.6619C150.684 18.9901 150.059 19.1541 149.343 19.1541ZM149.348 17.9062C149.812 17.9062 150.196 17.7836 150.501 17.5384C150.806 17.2931 151.032 16.9666 151.177 16.5589C151.327 16.1513 151.401 15.7022 151.401 15.2116C151.401 14.7244 151.327 14.277 151.177 13.8693C151.032 13.4583 150.806 13.1286 150.501 12.88C150.196 12.6314 149.812 12.5071 149.348 12.5071C148.881 12.5071 148.493 12.6314 148.184 12.88C147.88 13.1286 147.653 13.4583 147.503 13.8693C147.358 14.277 147.285 14.7244 147.285 15.2116C147.285 15.7022 147.358 16.1513 147.503 16.5589C147.653 16.9666 147.88 17.2931 148.184 17.5384C148.493 17.7836 148.881 17.9062 149.348 17.9062ZM157.42 19.1491C156.804 19.1491 156.254 18.9917 155.77 18.6768C155.289 18.3587 154.911 17.9062 154.636 17.3196C154.365 16.7296 154.229 16.022 154.229 15.1967C154.229 14.3714 154.366 13.6655 154.641 13.0788C154.92 12.4922 155.301 12.0431 155.785 11.7315C156.269 11.42 156.817 11.2642 157.43 11.2642C157.904 11.2642 158.286 11.3438 158.574 11.5028C158.866 11.6586 159.091 11.8409 159.25 12.0497C159.412 12.2585 159.538 12.4425 159.628 12.6016H159.717V8.81818H161.204V19H159.752V17.8118H159.628C159.538 17.9742 159.409 18.1598 159.24 18.3686C159.074 18.5774 158.846 18.7597 158.554 18.9155C158.262 19.0713 157.884 19.1491 157.42 19.1491ZM157.749 17.8814C158.176 17.8814 158.537 17.7687 158.832 17.5433C159.131 17.3146 159.356 16.9981 159.509 16.5938C159.664 16.1894 159.742 15.7187 159.742 15.1818C159.742 14.6515 159.666 14.1875 159.513 13.7898C159.361 13.392 159.137 13.0821 158.842 12.8601C158.547 12.638 158.183 12.527 157.749 12.527C157.301 12.527 156.928 12.643 156.63 12.875C156.332 13.107 156.106 13.4235 155.954 13.8246C155.805 14.2256 155.73 14.678 155.73 15.1818C155.73 15.6922 155.806 16.1513 155.959 16.5589C156.111 16.9666 156.337 17.2898 156.635 17.5284C156.937 17.7637 157.308 17.8814 157.749 17.8814ZM163.325 19V11.3636H164.812V19H163.325ZM164.076 10.1854C163.818 10.1854 163.596 10.0992 163.41 9.92685C163.228 9.75118 163.137 9.54238 163.137 9.30043C163.137 9.05516 163.228 8.84635 163.41 8.67401C163.596 8.49834 163.818 8.41051 164.076 8.41051C164.335 8.41051 164.555 8.49834 164.737 8.67401C164.923 8.84635 165.016 9.05516 165.016 9.30043C165.016 9.54238 164.923 9.75118 164.737 9.92685C164.555 10.0992 164.335 10.1854 164.076 10.1854ZM170.028 19.1541C169.313 19.1541 168.688 18.9901 168.154 18.6619C167.621 18.3338 167.206 17.8748 166.911 17.2848C166.616 16.6948 166.469 16.0054 166.469 15.2166C166.469 14.4245 166.616 13.7318 166.911 13.1385C167.206 12.5452 167.621 12.0845 168.154 11.7564C168.688 11.4283 169.313 11.2642 170.028 11.2642C170.744 11.2642 171.369 11.4283 171.903 11.7564C172.436 12.0845 172.851 12.5452 173.146 13.1385C173.441 13.7318 173.588 14.4245 173.588 15.2166C173.588 16.0054 173.441 16.6948 173.146 17.2848C172.851 17.8748 172.436 18.3338 171.903 18.6619C171.369 18.9901 170.744 19.1541 170.028 19.1541ZM170.033 17.9062C170.497 17.9062 170.882 17.7836 171.187 17.5384C171.492 17.2931 171.717 16.9666 171.863 16.5589C172.012 16.1513 172.087 15.7022 172.087 15.2116C172.087 14.7244 172.012 14.277 171.863 13.8693C171.717 13.4583 171.492 13.1286 171.187 12.88C170.882 12.6314 170.497 12.5071 170.033 12.5071C169.566 12.5071 169.178 12.6314 168.87 12.88C168.565 13.1286 168.338 13.4583 168.189 13.8693C168.043 14.277 167.97 14.7244 167.97 15.2116C167.97 15.7022 168.043 16.1513 168.189 16.5589C168.338 16.9666 168.565 17.2931 168.87 17.5384C169.178 17.7836 169.566 17.9062 170.033 17.9062ZM176.734 14.4659V19H175.247V11.3636H176.674V12.6065H176.769C176.944 12.2022 177.219 11.8774 177.594 11.6321C177.972 11.3868 178.447 11.2642 179.021 11.2642C179.541 11.2642 179.997 11.3736 180.388 11.5923C180.779 11.8078 181.082 12.1293 181.298 12.5568C181.513 12.9844 181.621 13.513 181.621 14.1428V19H180.134V14.3217C180.134 13.7682 179.99 13.3357 179.702 13.0241C179.414 12.7093 179.017 12.5518 178.514 12.5518C178.169 12.5518 177.862 12.6264 177.594 12.7756C177.329 12.9247 177.118 13.1435 176.963 13.4318C176.81 13.7169 176.734 14.0616 176.734 14.4659ZM188.299 19H186.668L190.332 8.81818H192.107L195.771 19H194.141L191.262 10.6676H191.183L188.299 19ZM188.572 15.0128H193.862V16.3054H188.572V15.0128ZM202.79 13.228L201.443 13.4666C201.386 13.2943 201.297 13.1302 201.174 12.9744C201.055 12.8187 200.892 12.6911 200.687 12.5916C200.481 12.4922 200.225 12.4425 199.916 12.4425C199.495 12.4425 199.144 12.5369 198.862 12.7259C198.581 12.9115 198.44 13.1518 198.44 13.4467C198.44 13.7019 198.534 13.9074 198.723 14.0632C198.912 14.219 199.217 14.3466 199.638 14.446L200.851 14.7244C201.554 14.8868 202.077 15.1371 202.422 15.4751C202.767 15.8132 202.939 16.2524 202.939 16.7926C202.939 17.25 202.807 17.6577 202.541 18.0156C202.28 18.3703 201.913 18.6487 201.443 18.8509C200.975 19.053 200.433 19.1541 199.817 19.1541C198.962 19.1541 198.264 18.9718 197.724 18.6072C197.184 18.2393 196.852 17.7173 196.73 17.0412L198.166 16.8224C198.256 17.197 198.44 17.4804 198.718 17.6726C198.997 17.8615 199.36 17.956 199.807 17.956C200.294 17.956 200.684 17.8549 200.975 17.6527C201.267 17.4472 201.413 17.197 201.413 16.902C201.413 16.6634 201.323 16.4628 201.144 16.3004C200.969 16.138 200.699 16.0154 200.334 15.9325L199.041 15.6491C198.329 15.4867 197.802 15.2282 197.46 14.8736C197.122 14.5189 196.953 14.0698 196.953 13.5263C196.953 13.0755 197.079 12.6811 197.331 12.343C197.583 12.005 197.931 11.7415 198.375 11.5526C198.819 11.3603 199.328 11.2642 199.901 11.2642C200.727 11.2642 201.376 11.4432 201.85 11.8011C202.324 12.1558 202.637 12.6314 202.79 13.228ZM204.574 19V11.3636H206.06V19H204.574ZM205.324 10.1854C205.066 10.1854 204.844 10.0992 204.658 9.92685C204.476 9.75118 204.385 9.54238 204.385 9.30043C204.385 9.05516 204.476 8.84635 204.658 8.67401C204.844 8.49834 205.066 8.41051 205.324 8.41051C205.583 8.41051 205.803 8.49834 205.985 8.67401C206.171 8.84635 206.264 9.05516 206.264 9.30043C206.264 9.54238 206.171 9.75118 205.985 9.92685C205.803 10.0992 205.583 10.1854 205.324 10.1854ZM209.427 16.4098L209.417 14.5952H209.676L212.718 11.3636H214.498L211.028 15.0426H210.794L209.427 16.4098ZM208.06 19V8.81818H209.546V19H208.06ZM212.882 19L210.148 15.3707L211.172 14.3317L214.707 19H212.882ZM215.853 21.8636V11.3636H217.305V12.6016H217.429C217.515 12.4425 217.639 12.2585 217.802 12.0497C217.964 11.8409 218.189 11.6586 218.478 11.5028C218.766 11.3438 219.147 11.2642 219.621 11.2642C220.238 11.2642 220.788 11.42 221.272 11.7315C221.756 12.0431 222.135 12.4922 222.41 13.0788C222.689 13.6655 222.828 14.3714 222.828 15.1967C222.828 16.022 222.69 16.7296 222.415 17.3196C222.14 17.9062 221.762 18.3587 221.282 18.6768C220.801 18.9917 220.253 19.1491 219.636 19.1491C219.172 19.1491 218.793 19.0713 218.498 18.9155C218.206 18.7597 217.977 18.5774 217.812 18.3686C217.646 18.1598 217.518 17.9742 217.429 17.8118H217.339V21.8636H215.853ZM217.309 15.1818C217.309 15.7187 217.387 16.1894 217.543 16.5938C217.699 16.9981 217.924 17.3146 218.219 17.5433C218.514 17.7687 218.876 17.8814 219.303 17.8814C219.747 17.8814 220.118 17.7637 220.417 17.5284C220.715 17.2898 220.94 16.9666 221.093 16.5589C221.249 16.1513 221.327 15.6922 221.327 15.1818C221.327 14.678 221.25 14.2256 221.098 13.8246C220.949 13.4235 220.723 13.107 220.422 12.875C220.123 12.643 219.751 12.527 219.303 12.527C218.872 12.527 218.508 12.638 218.209 12.8601C217.914 13.0821 217.691 13.392 217.538 13.7898C217.386 14.1875 217.309 14.6515 217.309 15.1818ZM225.473 19.0945C225.201 19.0945 224.967 18.9983 224.772 18.8061C224.576 18.6106 224.479 18.3752 224.479 18.1001C224.479 17.8284 224.576 17.5964 224.772 17.4041C224.967 17.2086 225.201 17.1108 225.473 17.1108C225.745 17.1108 225.978 17.2086 226.174 17.4041C226.369 17.5964 226.467 17.8284 226.467 18.1001C226.467 18.2824 226.421 18.4498 226.328 18.6023C226.238 18.7514 226.119 18.8707 225.97 18.9602C225.821 19.0497 225.655 19.0945 225.473 19.0945ZM229.438 19.0945C229.166 19.0945 228.932 18.9983 228.737 18.8061C228.541 18.6106 228.443 18.3752 228.443 18.1001C228.443 17.8284 228.541 17.5964 228.737 17.4041C228.932 17.2086 229.166 17.1108 229.438 17.1108C229.709 17.1108 229.943 17.2086 230.139 17.4041C230.334 17.5964 230.432 17.8284 230.432 18.1001C230.432 18.2824 230.386 18.4498 230.293 18.6023C230.203 18.7514 230.084 18.8707 229.935 18.9602C229.786 19.0497 229.62 19.0945 229.438 19.0945ZM233.403 19.0945C233.131 19.0945 232.897 18.9983 232.702 18.8061C232.506 18.6106 232.408 18.3752 232.408 18.1001C232.408 17.8284 232.506 17.5964 232.702 17.4041C232.897 17.2086 233.131 17.1108 233.403 17.1108C233.674 17.1108 233.908 17.2086 234.104 17.4041C234.299 17.5964 234.397 17.8284 234.397 18.1001C234.397 18.2824 234.35 18.4498 234.258 18.6023C234.168 18.7514 234.049 18.8707 233.9 18.9602C233.751 19.0497 233.585 19.0945 233.403 19.0945Z" fill="#D8DBE0"/>
<path d="M63.5284 32.4062V31.2727H70.2827V32.4062H67.5597V40H66.2472V32.4062H63.5284ZM70.9933 40V33.4545H72.2248V34.4943H72.293C72.4123 34.142 72.6225 33.8651 72.9237 33.6634C73.2276 33.4588 73.5714 33.3565 73.9549 33.3565C74.0344 33.3565 74.1282 33.3594 74.2362 33.3651C74.3469 33.3707 74.4336 33.3778 74.4961 33.3864V34.6051C74.445 34.5909 74.354 34.5753 74.2234 34.5582C74.0927 34.5384 73.962 34.5284 73.8313 34.5284C73.5302 34.5284 73.2617 34.5923 73.0259 34.7202C72.793 34.8452 72.6083 35.0199 72.4719 35.2443C72.3356 35.4659 72.2674 35.7187 72.2674 36.0028V40H70.9933ZM77.445 40.1449C77.0302 40.1449 76.6552 40.0682 76.32 39.9148C75.9847 39.7585 75.7191 39.5327 75.5231 39.2372C75.3299 38.9418 75.2333 38.5795 75.2333 38.1506C75.2333 37.7812 75.3043 37.4773 75.4464 37.2386C75.5884 37 75.7802 36.8111 76.0217 36.6719C76.2631 36.5327 76.533 36.4276 76.8313 36.3565C77.1296 36.2855 77.4336 36.2315 77.7433 36.1946C78.1353 36.1491 78.4535 36.1122 78.6978 36.0838C78.9421 36.0526 79.1197 36.0028 79.2305 35.9347C79.3413 35.8665 79.3967 35.7557 79.3967 35.6023V35.5724C79.3967 35.2003 79.2915 34.9119 79.0813 34.7074C78.8739 34.5028 78.5643 34.4006 78.1523 34.4006C77.7234 34.4006 77.3853 34.4957 77.1381 34.6861C76.8938 34.8736 76.7248 35.0824 76.631 35.3125L75.4336 35.0398C75.5756 34.642 75.783 34.321 76.0558 34.0767C76.3313 33.8295 76.6481 33.6506 77.006 33.5398C77.364 33.4261 77.7404 33.3693 78.1353 33.3693C78.3967 33.3693 78.6737 33.4006 78.9663 33.4631C79.2617 33.5227 79.5373 33.6335 79.793 33.7955C80.0515 33.9574 80.2631 34.1889 80.4279 34.4901C80.5927 34.7884 80.6751 35.1761 80.6751 35.6534V40H79.4308V39.1051H79.3796C79.2972 39.2699 79.1737 39.4318 79.0089 39.5909C78.8441 39.75 78.6325 39.8821 78.3739 39.9872C78.1154 40.0923 77.8058 40.1449 77.445 40.1449ZM77.7219 39.1222C78.0742 39.1222 78.3754 39.0526 78.6254 38.9134C78.8782 38.7741 79.07 38.5923 79.2006 38.3679C79.3342 38.1406 79.4009 37.8977 79.4009 37.6392V36.7955C79.3555 36.8409 79.2674 36.8835 79.1367 36.9233C79.0089 36.9602 78.8626 36.9929 78.6978 37.0213C78.533 37.0469 78.3725 37.071 78.2163 37.0938C78.06 37.1136 77.9293 37.1307 77.8242 37.1449C77.5771 37.1761 77.3512 37.2287 77.1467 37.3026C76.945 37.3764 76.783 37.483 76.6609 37.6222C76.5415 37.7585 76.4819 37.9403 76.4819 38.1676C76.4819 38.483 76.5984 38.7216 76.8313 38.8835C77.0643 39.0426 77.3612 39.1222 77.7219 39.1222ZM83.6463 36.1136V40H82.3722V33.4545H83.5952V34.5199H83.6761C83.8267 34.1733 84.0625 33.8949 84.3835 33.6847C84.7074 33.4744 85.1151 33.3693 85.6065 33.3693C86.0526 33.3693 86.4432 33.4631 86.7784 33.6506C87.1136 33.8352 87.3736 34.1108 87.5582 34.4773C87.7429 34.8437 87.8352 35.2969 87.8352 35.8366V40H86.5611V35.9901C86.5611 35.5156 86.4375 35.1449 86.1903 34.8778C85.9432 34.608 85.6037 34.473 85.1719 34.473C84.8764 34.473 84.6136 34.5369 84.3835 34.6648C84.1563 34.7926 83.9759 34.9801 83.8423 35.2273C83.7116 35.4716 83.6463 35.767 83.6463 36.1136ZM94.4489 35.0526L93.294 35.2571C93.2457 35.1094 93.169 34.9687 93.0639 34.8352C92.9616 34.7017 92.8224 34.5923 92.6463 34.5071C92.4702 34.4219 92.25 34.3793 91.9858 34.3793C91.625 34.3793 91.3239 34.4602 91.0824 34.6222C90.8409 34.7812 90.7202 34.9872 90.7202 35.2401C90.7202 35.4588 90.8011 35.6349 90.9631 35.7685C91.125 35.902 91.3864 36.0114 91.7472 36.0966L92.7869 36.3352C93.3892 36.4744 93.8381 36.6889 94.1335 36.9787C94.429 37.2685 94.5767 37.6449 94.5767 38.108C94.5767 38.5 94.4631 38.8494 94.2358 39.1562C94.0114 39.4602 93.6974 39.6989 93.294 39.8722C92.8935 40.0455 92.429 40.1321 91.9006 40.1321C91.1676 40.1321 90.5696 39.9759 90.1065 39.6634C89.6435 39.348 89.3594 38.9006 89.2543 38.321L90.4858 38.1335C90.5625 38.4545 90.7202 38.6974 90.9588 38.8622C91.1974 39.0241 91.5085 39.1051 91.892 39.1051C92.3097 39.1051 92.6435 39.0185 92.8935 38.8452C93.1435 38.669 93.2685 38.4545 93.2685 38.2017C93.2685 37.9972 93.1918 37.8253 93.0384 37.6861C92.8878 37.5469 92.6562 37.4418 92.3438 37.3707L91.2358 37.1278C90.625 36.9886 90.1733 36.767 89.8807 36.4631C89.5909 36.1591 89.446 35.7741 89.446 35.3082C89.446 34.9219 89.554 34.5838 89.7699 34.294C89.9858 34.0043 90.2841 33.7784 90.6648 33.6165C91.0455 33.4517 91.4815 33.3693 91.973 33.3693C92.6804 33.3693 93.2372 33.5227 93.6435 33.8295C94.0497 34.1335 94.3182 34.5412 94.4489 35.0526ZM99.0927 33.4545V34.4773H95.3938V33.4545H99.0927ZM96.408 40V32.696C96.408 32.2869 96.4975 31.9474 96.6765 31.6776C96.8555 31.4048 97.0927 31.2017 97.3881 31.0682C97.6836 30.9318 98.0046 30.8636 98.3512 30.8636C98.6069 30.8636 98.8256 30.8849 99.0075 30.9276C99.1893 30.9673 99.3242 31.0043 99.4123 31.0384L99.114 32.0696C99.0543 32.0526 98.9776 32.0327 98.8839 32.0099C98.7901 31.9844 98.6765 31.9716 98.543 31.9716C98.2333 31.9716 98.0117 32.0483 97.8782 32.2017C97.7475 32.3551 97.6822 32.5767 97.6822 32.8665V40H96.408ZM102.971 40.1321C102.326 40.1321 101.77 39.9943 101.304 39.7188C100.841 39.4403 100.483 39.0497 100.23 38.5469C99.9805 38.0412 99.8555 37.4489 99.8555 36.7699C99.8555 36.0994 99.9805 35.5085 100.23 34.9972C100.483 34.4858 100.836 34.0866 101.287 33.7997C101.742 33.5128 102.273 33.3693 102.881 33.3693C103.25 33.3693 103.608 33.4304 103.955 33.5526C104.301 33.6747 104.613 33.8665 104.888 34.1278C105.164 34.3892 105.381 34.7287 105.54 35.1463C105.699 35.5611 105.779 36.0653 105.779 36.6591V37.1108H100.576V36.1562H104.53C104.53 35.821 104.462 35.5241 104.326 35.2656C104.189 35.0043 103.998 34.7983 103.75 34.6477C103.506 34.4972 103.219 34.4219 102.89 34.4219C102.532 34.4219 102.219 34.5099 101.952 34.6861C101.688 34.8594 101.483 35.0866 101.338 35.3679C101.196 35.6463 101.125 35.9489 101.125 36.2756V37.0213C101.125 37.4588 101.202 37.831 101.355 38.1378C101.512 38.4446 101.729 38.679 102.007 38.8409C102.286 39 102.611 39.0795 102.983 39.0795C103.225 39.0795 103.445 39.0455 103.644 38.9773C103.843 38.9062 104.015 38.8011 104.159 38.6619C104.304 38.5227 104.415 38.3509 104.492 38.1463L105.698 38.3636C105.601 38.7187 105.428 39.0298 105.178 39.2969C104.931 39.5611 104.62 39.767 104.245 39.9148C103.873 40.0597 103.448 40.1321 102.971 40.1321ZM107.192 40V33.4545H108.424V34.4943H108.492C108.612 34.142 108.822 33.8651 109.123 33.6634C109.427 33.4588 109.771 33.3565 110.154 33.3565C110.234 33.3565 110.327 33.3594 110.435 33.3651C110.546 33.3707 110.633 33.3778 110.695 33.3864V34.6051C110.644 34.5909 110.553 34.5753 110.423 34.5582C110.292 34.5384 110.161 34.5284 110.031 34.5284C109.729 34.5284 109.461 34.5923 109.225 34.7202C108.992 34.8452 108.808 35.0199 108.671 35.2443C108.535 35.4659 108.467 35.7187 108.467 36.0028V40H107.192Z" fill="#989AA5"/>
<circle cx="306.5" cy="11.5" r="2.5" fill="white"/>
<circle cx="315" cy="11.5" r="2.5" fill="white"/>
<circle cx="323.5" cy="11.5" r="2.5" fill="white"/>
<path d="M254.959 36V27.2727H260.371V28.4062H256.276V31.0653H259.983V32.1946H256.276V36H254.959ZM261.806 36V29.4545H263.037V30.4943H263.105C263.225 30.142 263.435 29.8651 263.736 29.6634C264.04 29.4588 264.384 29.3565 264.767 29.3565C264.847 29.3565 264.941 29.3594 265.049 29.3651C265.159 29.3707 265.246 29.3778 265.309 29.3864V30.6051C265.257 30.5909 265.167 30.5753 265.036 30.5582C264.905 30.5384 264.775 30.5284 264.644 30.5284C264.343 30.5284 264.074 30.5923 263.838 30.7202C263.605 30.8452 263.421 31.0199 263.284 31.2443C263.148 31.4659 263.08 31.7187 263.08 32.0028V36H261.806ZM268.934 36.1321C268.32 36.1321 267.785 35.9915 267.327 35.7102C266.87 35.429 266.515 35.0355 266.262 34.5298C266.009 34.0241 265.883 33.4332 265.883 32.7571C265.883 32.0781 266.009 31.4844 266.262 30.9759C266.515 30.4673 266.87 30.0724 267.327 29.7912C267.785 29.5099 268.32 29.3693 268.934 29.3693C269.548 29.3693 270.083 29.5099 270.54 29.7912C270.998 30.0724 271.353 30.4673 271.606 30.9759C271.859 31.4844 271.985 32.0781 271.985 32.7571C271.985 33.4332 271.859 34.0241 271.606 34.5298C271.353 35.0355 270.998 35.429 270.54 35.7102C270.083 35.9915 269.548 36.1321 268.934 36.1321ZM268.938 35.0625C269.336 35.0625 269.665 34.9574 269.927 34.7472C270.188 34.5369 270.381 34.2571 270.506 33.9077C270.634 33.5582 270.698 33.1733 270.698 32.7528C270.698 32.3352 270.634 31.9517 270.506 31.6023C270.381 31.25 270.188 30.9673 269.927 30.7543C269.665 30.5412 269.336 30.4347 268.938 30.4347C268.538 30.4347 268.205 30.5412 267.941 30.7543C267.68 30.9673 267.485 31.25 267.357 31.6023C267.232 31.9517 267.17 32.3352 267.17 32.7528C267.17 33.1733 267.232 33.5582 267.357 33.9077C267.485 34.2571 267.68 34.5369 267.941 34.7472C268.205 34.9574 268.538 35.0625 268.938 35.0625ZM273.407 36V29.4545H274.63V30.5199H274.711C274.848 30.1591 275.071 29.8778 275.38 29.6761C275.69 29.4716 276.061 29.3693 276.493 29.3693C276.93 29.3693 277.297 29.4716 277.592 29.6761C277.89 29.8807 278.11 30.1619 278.252 30.5199H278.321C278.477 30.1705 278.725 29.892 279.066 29.6847C279.407 29.4744 279.814 29.3693 280.285 29.3693C280.879 29.3693 281.363 29.5554 281.738 29.9276C282.116 30.2997 282.305 30.8608 282.305 31.6108V36H281.031V31.7301C281.031 31.2869 280.91 30.9659 280.669 30.767C280.427 30.5682 280.139 30.4688 279.804 30.4688C279.389 30.4688 279.066 30.5966 278.836 30.8523C278.606 31.1051 278.491 31.4304 278.491 31.8281V36H277.221V31.6491C277.221 31.294 277.11 31.0085 276.889 30.7926C276.667 30.5767 276.379 30.4688 276.024 30.4688C275.782 30.4688 275.559 30.5327 275.355 30.6605C275.153 30.7855 274.99 30.9602 274.865 31.1847C274.743 31.4091 274.681 31.669 274.681 31.9645V36H273.407Z" fill="#989AA5"/>
<circle cx="290" cy="31.5" r="2" fill="#8C8F96"/>
<path d="M299.886 36.1193C299.497 36.1136 299.114 36.0426 298.736 35.9062C298.361 35.7699 298.02 35.5426 297.713 35.2244C297.406 34.9062 297.161 34.4787 296.976 33.9418C296.794 33.4048 296.703 32.7344 296.703 31.9304C296.703 31.169 296.778 30.4929 296.929 29.902C297.082 29.3111 297.303 28.8125 297.589 28.4062C297.876 27.9972 298.223 27.6861 298.629 27.473C299.036 27.2599 299.491 27.1534 299.997 27.1534C300.517 27.1534 300.979 27.2557 301.382 27.4602C301.786 27.6648 302.112 27.9474 302.362 28.3082C302.615 28.669 302.776 29.0795 302.844 29.5398H301.544C301.456 29.1761 301.281 28.8793 301.02 28.6491C300.759 28.419 300.418 28.304 299.997 28.304C299.358 28.304 298.859 28.5824 298.501 29.1392C298.146 29.696 297.967 30.4702 297.964 31.4616H298.028C298.179 31.2145 298.364 31.0043 298.582 30.831C298.804 30.6548 299.051 30.5199 299.324 30.4261C299.599 30.3295 299.889 30.2812 300.193 30.2812C300.699 30.2812 301.156 30.4048 301.565 30.652C301.977 30.8963 302.305 31.2344 302.55 31.6662C302.794 32.098 302.916 32.5923 302.916 33.1491C302.916 33.706 302.79 34.2102 302.537 34.6619C302.287 35.1136 301.935 35.4716 301.48 35.7358C301.026 35.9972 300.494 36.125 299.886 36.1193ZM299.882 35.0114C300.217 35.0114 300.517 34.929 300.781 34.7642C301.045 34.5994 301.254 34.3778 301.408 34.0994C301.561 33.821 301.638 33.5099 301.638 33.1662C301.638 32.831 301.563 32.5256 301.412 32.25C301.264 31.9744 301.06 31.7557 300.798 31.5938C300.54 31.4318 300.244 31.3509 299.912 31.3509C299.659 31.3509 299.425 31.3991 299.209 31.4957C298.996 31.5923 298.808 31.7259 298.646 31.8963C298.484 32.0668 298.357 32.2628 298.263 32.4844C298.172 32.7031 298.126 32.9347 298.126 33.179C298.126 33.5057 298.202 33.8082 298.352 34.0866C298.506 34.3651 298.714 34.5895 298.979 34.7599C299.246 34.9276 299.547 35.0114 299.882 35.0114ZM304.285 34.2955V33.2301L308.056 27.2727H308.896V28.8409H308.363L305.666 33.1108V33.179H310.835V34.2955H304.285ZM308.423 36V33.9716L308.431 33.4858V27.2727H309.68V36H308.423ZM312.614 36L316.424 28.4659V28.402H312.017V27.2727H317.787V28.4403L313.99 36H312.614ZM319.269 36V35.0455L322.222 31.9858C322.538 31.6534 322.798 31.3622 323.002 31.1122C323.21 30.8594 323.364 30.6193 323.467 30.392C323.569 30.1648 323.62 29.9233 323.62 29.6676C323.62 29.3778 323.552 29.1278 323.415 28.9176C323.279 28.7045 323.093 28.5412 322.857 28.4276C322.621 28.3111 322.356 28.2528 322.06 28.2528C321.748 28.2528 321.475 28.3168 321.242 28.4446C321.009 28.5724 320.83 28.7528 320.705 28.9858C320.58 29.2187 320.518 29.4915 320.518 29.804H319.261C319.261 29.2727 319.383 28.8082 319.627 28.4105C319.871 28.0128 320.207 27.7045 320.633 27.4858C321.059 27.2642 321.543 27.1534 322.086 27.1534C322.634 27.1534 323.117 27.2628 323.535 27.4815C323.955 27.6974 324.283 27.9929 324.519 28.3679C324.755 28.7401 324.873 29.1605 324.873 29.6293C324.873 29.9531 324.812 30.2699 324.69 30.5795C324.57 30.8892 324.362 31.2344 324.063 31.6151C323.765 31.9929 323.35 32.4517 322.819 32.9915L321.085 34.8068V34.8707H325.013V36H319.269Z" fill="#989AA5"/>
</svg>
